<?xml version="1.0" encoding="UTF-8"?>
<svg width="167px" height="383px" viewBox="0 0 167 383" version="1.1" xmlns="http://www.w3.org/2000/svg" xmlns:xlink="http://www.w3.org/1999/xlink">
    <!-- Generator: Sketch 64 (93537) - https://sketch.com -->
    <title>Untitled</title>
    <desc>Created with Sketch.</desc>
    <g id="Page-1" stroke="none" stroke-width="1" fill="none" fill-rule="evenodd">
        <path d="M164.502,108.684 C164.502,47.381 143.863,6.431 142.985,4.718 C142.128,3.05 140.411,2 138.536,2 L28.464,2 C26.589,2 24.871,3.05 24.015,4.719 C23.136,6.432 2.498,47.381 2.498,108.685 C2.498,140.735 12.616,170.785 22.401,199.846 C31.572,227.087 40.236,252.817 40.236,278.509 C40.236,331.794 31.011,374.504 30.918,374.929 C30.593,376.408 30.956,377.955 31.906,379.134 C32.856,380.313 34.288,381 35.802,381 L131.197,381 C132.711,381 134.145,380.313 135.093,379.133 C136.042,377.953 136.406,376.406 136.081,374.927 C135.988,374.503 126.763,331.86 126.763,278.508 C126.763,252.816 135.426,227.086 144.598,199.845 C154.383,170.784 164.502,140.733 164.502,108.684 Z" id="Path" stroke="#000000" stroke-width="4" fill-rule="nonzero"></path>
    </g>
</svg>