<?xml version="1.0" encoding="iso-8859-1"?>
<!-- Generator: Adobe Illustrator 19.0.0, SVG Export Plug-In . SVG Version: 6.00 Build 0)  -->
<svg version="1.1" id="Capa_1" xmlns="http://www.w3.org/2000/svg" xmlns:xlink="http://www.w3.org/1999/xlink" x="0px" y="0px"
	 viewBox="0 0 379 379" style="enable-background:new 0 0 379 379;" xml:space="preserve">
<g>
	<g>
		<g>
			<path d="M199.984,147.81c-3.624,0-6.572,2.949-6.572,6.573s2.948,6.572,6.572,6.572c3.624,0,6.572-2.948,6.572-6.572
				C206.555,150.759,203.607,147.81,199.984,147.81z"/>
			<path d="M226.223,112.104c-3.659,0-6.636,2.977-6.636,6.636s2.977,6.636,6.636,6.636s6.636-2.977,6.636-6.636
				S229.882,112.104,226.223,112.104z"/>
			<path d="M270.502,106.684c0-61.303-20.639-102.253-21.517-103.966C248.128,1.05,246.411,0,244.536,0H134.464
				c-1.875,0-3.593,1.05-4.449,2.719c-0.879,1.713-21.517,42.662-21.517,103.966c0,32.05,10.118,62.1,19.903,91.161
				c9.171,27.241,17.835,52.971,17.835,78.663c0,53.285-9.225,95.995-9.318,96.42c-0.325,1.479,0.038,3.026,0.988,4.205
				c0.95,1.179,2.382,1.866,3.896,1.866h95.395c1.514,0,2.948-0.687,3.896-1.867c0.949-1.18,1.313-2.727,0.988-4.206
				c-0.093-0.424-9.318-43.067-9.318-96.419c0-25.692,8.663-51.422,17.835-78.663C260.383,168.784,270.502,138.733,270.502,106.684z
				 M137.643,10.001h103.72c2.658,5.926,8.927,21.254,13.57,43.268c-3.337-2.464-7.046-4.091-10.873-4.709
				c-4.283-9.607-13.982-16.062-24.683-16.062c-11.985,0-22.181,7.696-25.7,18.649c-1.339-0.203-2.734-0.306-4.18-0.306
				c-5.832,0-11.963,2.913-16.575,6.617c-6.876-8.268-16.316-13.056-26.166-13.056c-8.596,0-16.521,3.561-22.81,9.525
				C128.604,31.585,134.963,15.992,137.643,10.001z M146.759,54.402c8.322,0,16.063,4.854,21.241,13.318
				c0.853,1.395,2.335,2.284,3.967,2.382c1.627,0.09,3.209-0.61,4.222-1.893c3.154-3.993,9.249-7.368,13.311-7.368
				c2.313,0,4.249,0.365,5.919,1.117c1.469,0.662,3.17,0.575,4.564-0.236c1.394-0.811,2.312-2.244,2.465-3.849
				c0.836-8.765,8.114-15.375,16.93-15.375c7.485,0,14.191,5.015,16.309,12.196c0.627,2.128,2.58,3.586,4.795,3.586
				c0.012,0,0.024,0,0.036,0c5.558-0.017,11.386,4.13,14.902,10.622c2.397,4.425,3.383,9.717,2.851,14.962H120.08
				C122.01,67.222,133.247,54.402,146.759,54.402z M147.88,369c0.44-2.375,0.974-5.4,1.557-9h80.125c0.584,3.6,1.118,6.625,1.557,9
				H147.88z M222.763,276.508c0,29.295,2.74,55.485,5.284,73.492h-77.094c2.545-18.007,5.284-44.197,5.284-73.492
				c0-27.331-8.917-53.815-18.358-81.854c-9.527-28.298-19.38-57.559-19.38-87.97c0-4.379,0.112-8.657,0.32-12.821h141.363
				c0.207,4.163,0.319,8.442,0.319,12.821c0,30.411-9.852,59.672-19.38,87.97C231.68,222.693,222.763,249.177,222.763,276.508z"/>
			<path d="M166.961,123.602c-3.389,0-6.145,2.757-6.145,6.145s2.757,6.145,6.145,6.145c3.389,0,6.145-2.757,6.145-6.145
				S170.351,123.602,166.961,123.602z"/>
			<path d="M194.217,268.364c-3.262,0-5.917,2.655-5.917,5.917c0,3.262,2.654,5.917,5.917,5.917s5.917-2.654,5.917-5.917
				S197.479,268.364,194.217,268.364z"/>
			<path d="M179.929,204.428c-3.072,0-5.572,2.5-5.572,5.572s2.499,5.572,5.572,5.572c3.072,0,5.573-2.5,5.573-5.572
				S183.002,204.428,179.929,204.428z"/>
		</g>
	</g>
</g>
<g>
</g>
<g>
</g>
<g>
</g>
<g>
</g>
<g>
</g>
<g>
</g>
<g>
</g>
<g>
</g>
<g>
</g>
<g>
</g>
<g>
</g>
<g>
</g>
<g>
</g>
<g>
</g>
<g>
</g>
</svg>
