<svg width="576" height="296" xmlns="http://www.w3.org/2000/svg"><g fill="#C22823"><path d="M140.2 106.1h-22.3l28-58.1h23.3l12.9 58.1h-22.3l-1-7.2h-15.9l-2.7 7.2zm16.8-21l-1.1-10.2c-.3-2.5-.3-5-.4-7.5h-.8l-6.2 17.7h8.5z"/><path d="M198.3 48H220l3.9 30.5h.5c.7-2.6 1.5-5.2 2.5-7.7l9.6-22.8H258l1.7 58.1h-20.5l1.4-31.8h-.4c-.6 2-1.3 3.9-2.2 5.8l-11.9 26H214l-4.2-24.6c-.3-2.4-.4-4.8-.3-7.2h-.7c-.5 2.3-.9 4.7-1.5 7l-5.8 24.8h-20.4L198.3 48zm74.8 0h39L310 63.9h-17.8l-.7 5.6h16.2l-2 15.1h-16.3l-.8 5.7H307l-2.1 15.9h-39.7zm45.8 0h25.5c13.1 0 23.4 5.5 21.5 20.2-1.2 8.8-5.1 12.5-13.3 15.1l-.1.5c1.2.9 2.3 2.1 3.1 3.5l10.1 18.9h-24.3l-6.7-18.6h-.4l-2.5 18.6h-20.6l7.7-58.2zm17.2 25.8h1.5c3.5 0 7-.5 7.6-4.9.6-4.5-2.5-5-6.1-5h-1.6l-1.4 9.9zM377.3 48h21.1l-7.8 58.1h-21.1zm68 23.6c-3-3.1-6.8-5.9-11.6-5.9-6.5.1-12 4.9-13 11.3-.9 6.4 3.9 11.3 10.3 11.3 4.8 0 9-2.1 12.8-5.4l-3.5 21.7c-3.6 1.6-11.6 2.3-15.3 2.3-16.6 0-27.8-12.9-25.5-29.4C401.8 60.6 416.9 47 434 47c4.7 0 9.4.8 13.8 2.4l-2.5 22.2zm19.2 34.5h-22.3l28-58.1h23.3l12.9 58.1h-22.3l-1-7.2h-15.9l-2.7 7.2zm16.8-21l-1.1-10.2c-.3-2.5-.3-5-.4-7.5h-.8l-6.2 17.7h8.5zM517.7 48H538l14.6 32.2h.6c-.4-4.9-.3-9.9.2-14.8l2.3-17.4H576l-7.8 58.1H548l-14.5-30.5h-.6c.2 3.9.2 7.8-.3 11.6l-2.6 18.9h-20.1l7.8-58.1zm-399.2 70.5h39.1l-2.1 15.9h-17.8l-.8 5.5h16.3l-2 15.1h-16.3l-.8 5.7h18.4l-2.1 15.9h-39.7zm45.4 0H185l-5.3 39.4h17.7l-2.5 18.6h-38.8zm44.4 0h39.1l-2.1 15.9h-17.8l-.8 5.5H243l-2 15.1h-16.3l-.8 5.7h18.4l-2.1 15.9h-39.7zm84.4 23.6c-3-3.2-6.8-5.9-11.6-5.9-6.5.1-12 4.9-13 11.3-.9 6.4 4 11.3 10.3 11.3 4.9 0 9-2.1 12.8-5.4l-3.5 21.7c-3.6 1.6-11.6 2.3-15.3 2.3-16.6 0-27.8-12.9-25.5-29.4 2.3-16.9 17.4-30.5 34.5-30.5 4.7 0 9.4.8 13.9 2.4l-2.6 22.2zm7.4-23.6h44.4l-2.5 18.9-11.6-.5-5.4 39.7h-21.1l5.4-39.7-11.7.5zm49 0h25.5c13.1 0 23.4 5.6 21.5 20.2-1.2 8.8-5.1 12.5-13.3 15.1l-.1.5c1.2.9 2.3 2.1 3.1 3.5l10.1 18.9h-24.3l-6.7-18.6h-.4l-2.5 18.6h-20.6l7.7-58.2zm17.2 25.7h1.5c3.5 0 7-.5 7.6-4.9.6-4.4-2.5-5-6.1-5h-1.6l-1.4 9.9zm41.1-25.7h21.1l-7.8 58.1h-21.1zm68.1 23.6c-3-3.2-6.8-5.9-11.6-5.9-6.5.1-12 4.9-13 11.3-.8 6.4 4 11.3 10.3 11.3 4.9 0 9-2.1 12.8-5.4l-3.5 21.7c-3.6 1.6-11.5 2.3-15.3 2.3-16.6 0-27.8-12.9-25.5-29.4 2.3-16.9 17.4-30.5 34.5-30.5 4.7 0 9.4.8 13.8 2.4l-2.5 22.2zM109.1 189h26.7c13.6 0 22.6 6.9 20.7 21.3-1.6 11.9-10 19.2-21.8 19.2h-10.8l-2.4 17.5h-20.3l7.9-58zm16.8 26h2.1c3.7 0 7.8-.6 8.4-5.3.6-4.5-3.7-4.8-7.1-4.8h-2l-1.4 10.1zm95.9 3.2c-2.5 18.6-18.4 29.8-36.1 29.8-17.7 0-30.6-11.1-28.1-29.8 2.5-18.2 18.5-30.1 36.2-30.1 17.7 0 30.5 11.9 28 30.1zm-43 .3c-.9 6.6 3 11.2 9.4 11.2s11.5-4.5 12.4-11.2c.8-6.2-2.6-11.3-9.3-11.3-6.7 0-11.7 5.2-12.5 11.3zm64.6-29.5l2.7 34.6h.5c.8-3.6 1.9-7.2 3.2-10.7l9.3-23.9h16.2l3.3 34.6h.5c.7-3.5 1.7-6.9 2.8-10.2L291 189h22l-28.3 58.1h-18.4l-2.4-31.6h-.7c-.5 3-1.3 5.9-2.3 8.8l-8.9 22.8h-17.9L221.6 189h21.8zm73 0h39l-2.1 15.9h-17.8l-.8 5.5H351l-2 15.1h-16.3l-.8 5.7h18.4l-2.1 15.9h-39.7zm45.9 0h25.5c13.1 0 23.4 5.5 21.5 20.2-1.2 8.8-5.1 12.5-13.3 15.1l-.1.5c1.2.9 2.3 2.1 3.1 3.5l10.1 18.9h-24.3l-6.7-18.6h-.4l-2.5 18.6h-20.6l7.7-58.2zm17.2 25.8h1.5c3.5 0 7-.5 7.6-4.9.6-4.4-2.5-5-6.1-5h-1.6l-1.4 9.9z"/><path d="M293.1 262.3l-2.4 17.8H17.4l35.7-265h273.3L324 32.8h15.1L343.5 0H39.9L.2 295.1h303.7l4.4-32.8z"/></g></svg>