<svg xmlns="http://www.w3.org/2000/svg" xmlns:xlink="http://www.w3.org/1999/xlink" width="1636" height="2500" viewBox="-0.004 0.521 72.945 111.479"><g transform="translate(-.004 .303) scale(.99924)"><defs><path id="a" d="M72.059 36.792c0 19.896-16.131 36.024-36.029 36.024S.004 56.688.004 36.792C.004 16.889 16.132.761 36.03.761s36.029 16.128 36.029 36.031z"/></defs><clipPath id="b"><use xlink:href="#a" overflow="visible"/></clipPath><g clip-path="url(#b)"><path d="M73.001 36.724c0 20.157-16.341 36.501-36.5 36.501C16.342 73.224 0 56.881 0 36.724 0 16.56 16.342.218 36.501.218s36.5 16.342 36.5 36.506z" fill="#b2b4b6"/><path d="M72.93 36.702c0 20.099-16.292 36.393-36.391 36.393-20.1 0-36.393-16.294-36.393-36.393C.146 16.598 16.439.305 36.539.305 56.639.304 72.93 16.597 72.93 36.702z" fill="#b2b4b7"/><path d="M72.862 36.68c0 20.039-16.245 36.286-36.285 36.286S.292 56.719.292 36.68C.292 16.636 16.537.391 36.577.391S72.862 16.635 72.862 36.68z" fill="#b2b4b7"/><path d="M72.793 36.658c0 19.981-16.198 36.177-36.177 36.177C16.634 72.835.438 56.638.438 36.658.438 16.673 16.634.475 36.616.475c19.98 0 36.177 16.198 36.177 36.183z" fill="#b3b5b8"/><path d="M72.725 36.636c0 19.92-16.149 36.069-36.071 36.069-19.922 0-36.07-16.149-36.07-36.069C.584 16.71 16.732.561 36.654.561S72.725 16.71 72.725 36.636z" fill="#b4b6b8"/><path d="M72.655 36.615c0 19.861-16.1 35.962-35.962 35.962C16.83 72.577.73 56.475.73 36.615.73 16.749 16.83.648 36.693.648c19.862-.001 35.962 16.1 35.962 35.967z" fill="#b5b7b9"/><path d="M72.586 36.593c0 19.802-16.053 35.854-35.856 35.854S.875 56.395.875 36.593C.875 16.786 16.927.733 36.73.733c19.803 0 35.856 16.053 35.856 35.86z" fill="#b6b8ba"/><path d="M72.516 36.571c0 19.743-16.004 35.746-35.747 35.746-19.744 0-35.747-16.003-35.747-35.746C1.022 16.824 17.025.819 36.769.819c19.743 0 35.747 16.005 35.747 35.752z" fill="#b7b9bb"/><path d="M72.448 36.549c0 19.682-15.956 35.638-35.64 35.638-19.685 0-35.64-15.956-35.64-35.638C1.168 16.861 17.123.904 36.808.904c19.684 0 35.64 15.957 35.64 35.645z" fill="#b7b9bc"/><path d="M72.379 36.527c0 19.623-15.909 35.53-35.533 35.53-19.626 0-35.532-15.907-35.532-35.53C1.313 16.899 17.22.99 36.846.99c19.624 0 35.533 15.909 35.533 35.537z" fill="#b7b9bc"/><path d="M72.354 36.508c0 19.582-15.874 35.455-35.456 35.455-19.584 0-35.456-15.873-35.456-35.455 0-19.586 15.872-35.461 35.456-35.461 19.582.001 35.456 15.875 35.456 35.461z" fill="#b8babc"/><path d="M72.33 36.489c0 19.539-15.84 35.378-35.382 35.378-19.541 0-35.379-15.839-35.379-35.378 0-19.544 15.839-35.384 35.379-35.384 19.542 0 35.382 15.84 35.382 35.384z" fill="#b9bbbd"/><path d="M72.305 36.47C72.305 55.967 56.5 71.772 37 71.772c-19.499 0-35.303-15.805-35.303-35.303C1.697 16.968 17.502 1.161 37 1.161c19.5 0 35.305 15.807 35.305 35.309z" fill="#babcbe"/><path d="M72.281 36.451c0 19.455-15.771 35.226-35.228 35.226-19.458 0-35.229-15.771-35.229-35.226 0-19.46 15.771-35.233 35.229-35.233 19.457.001 35.228 15.773 35.228 35.233z" fill="#bbbdbf"/><path d="M72.256 36.432c0 19.413-15.736 35.15-35.152 35.15-19.415 0-35.151-15.737-35.151-35.15 0-19.419 15.736-35.156 35.151-35.156 19.416 0 35.152 15.738 35.152 35.156z" fill="#bcbdc0"/><path d="M72.232 36.413c0 19.371-15.705 35.074-35.075 35.074-19.374 0-35.077-15.703-35.077-35.074 0-19.377 15.703-35.08 35.077-35.08 19.37 0 35.075 15.704 35.075 35.08z" fill="#bcbec0"/><path d="M72.207 36.394c0 19.329-15.67 34.998-34.999 34.998-19.332 0-35-15.669-35-34.998 0-19.334 15.669-35.004 35-35.004 19.329 0 34.999 15.67 34.999 35.004z" fill="#bdbfc1"/><path d="M72.184 36.375c0 19.288-15.637 34.923-34.923 34.923-19.291 0-34.924-15.635-34.924-34.923 0-19.292 15.634-34.927 34.924-34.927 19.286-.001 34.923 15.635 34.923 34.927z" fill="#bec0c2"/><path d="M72.158 36.356c0 19.246-15.602 34.846-34.847 34.846-19.247 0-34.847-15.601-34.847-34.846 0-19.25 15.6-34.851 34.847-34.851 19.246 0 34.847 15.601 34.847 34.851z" fill="#bfc1c3"/><path d="M72.135 36.337c0 19.203-15.568 34.77-34.771 34.77-19.206 0-34.773-15.567-34.773-34.77 0-19.208 15.567-34.775 34.773-34.775 19.202 0 34.771 15.567 34.771 34.775z" fill="#c0c2c4"/><path d="M72.109 36.318c0 19.161-15.533 34.694-34.694 34.694-19.163 0-34.696-15.533-34.696-34.694 0-19.166 15.532-34.7 34.696-34.7 19.161 0 34.694 15.534 34.694 34.7z" fill="#c1c2c4"/><path d="M72.086 36.299c0 19.119-15.5 34.618-34.618 34.618-19.122 0-34.62-15.499-34.62-34.618 0-19.124 15.498-34.623 34.62-34.623 19.118 0 34.618 15.499 34.618 34.623z" fill="#c1c3c5"/><path d="M72.061 36.28c0 19.077-15.465 34.541-34.542 34.541-19.08 0-34.544-15.464-34.544-34.541 0-19.082 15.464-34.547 34.544-34.547 19.077 0 34.542 15.466 34.542 34.547z" fill="#c2c4c6"/><path d="M72.037 36.261c0 19.035-15.432 34.466-34.466 34.466-19.038 0-34.469-15.431-34.469-34.466 0-19.039 15.431-34.471 34.469-34.471 19.034 0 34.466 15.431 34.466 34.471z" fill="#c3c5c7"/><path d="M72.012 36.242c0 18.993-15.396 34.39-34.389 34.39-18.995 0-34.392-15.397-34.392-34.39 0-18.998 15.396-34.395 34.392-34.395 18.992 0 34.389 15.397 34.389 34.395z" fill="#c4c6c8"/><path d="M71.988 36.223c0 18.951-15.363 34.313-34.313 34.313-18.954 0-34.316-15.362-34.316-34.313 0-18.955 15.362-34.319 34.316-34.319 18.95 0 34.313 15.363 34.313 34.319z" fill="#c5c6c8"/><path d="M71.965 36.204c0 18.909-15.33 34.237-34.239 34.237-18.911 0-34.24-15.328-34.24-34.237 0-18.913 15.329-34.242 34.24-34.242 18.909-.001 34.239 15.328 34.239 34.242z" fill="#c5c7c9"/><path d="M71.939 36.185c0 18.867-15.295 34.161-34.161 34.161-18.87 0-34.164-15.294-34.164-34.161 0-18.872 15.294-34.167 34.164-34.167 18.867.001 34.161 15.295 34.161 34.167z" fill="#c6c8ca"/><path d="M71.916 36.166c0 18.825-15.261 34.085-34.086 34.085-18.827 0-34.088-15.261-34.088-34.085 0-18.83 15.26-34.09 34.088-34.09 18.824 0 34.086 15.26 34.086 34.09z" fill="#c7c9cb"/><path d="M71.89 36.147c0 18.783-15.228 34.009-34.01 34.009-18.784 0-34.01-15.226-34.01-34.009 0-18.788 15.227-34.014 34.011-34.014 18.781 0 34.009 15.226 34.009 34.014z" fill="#c8cacc"/><path d="M71.867 36.128c0 18.741-15.195 33.933-33.934 33.933-18.743 0-33.935-15.192-33.935-33.933C3.998 17.382 19.19 2.19 37.933 2.19c18.739 0 33.934 15.192 33.934 33.938z" fill="#c9cbcc"/><path d="M71.842 36.109c0 18.699-15.16 33.857-33.858 33.857-18.701 0-33.859-15.159-33.859-33.857 0-18.704 15.158-33.862 33.859-33.862 18.698 0 33.858 15.158 33.858 33.862z" fill="#cacbcd"/><path d="M71.818 36.09c0 18.657-15.127 33.781-33.781 33.781-18.659 0-33.783-15.124-33.783-33.781 0-18.662 15.124-33.785 33.783-33.785 18.654-.001 33.781 15.123 33.781 33.785z" fill="#cbccce"/><path d="M71.793 36.071c0 18.615-15.092 33.705-33.705 33.705-18.616 0-33.707-15.09-33.707-33.705 0-18.62 15.091-33.709 33.707-33.709 18.613 0 33.705 15.089 33.705 33.709z" fill="#cbcdcf"/><path d="M71.769 36.052c0 18.573-15.058 33.629-33.629 33.629-18.576 0-33.632-15.056-33.632-33.629 0-18.578 15.056-33.633 33.632-33.633 18.571 0 33.629 15.055 33.629 33.633z" fill="#ccced0"/><path d="M71.744 36.033c0 18.53-15.023 33.552-33.553 33.552-18.533 0-33.555-15.022-33.555-33.552 0-18.536 15.022-33.558 33.555-33.558 18.53 0 33.553 15.023 33.553 33.558z" fill="#cdcfd0"/><path d="M71.72 36.014c0 18.489-14.99 33.476-33.477 33.476-18.491 0-33.479-14.987-33.479-33.476 0-18.494 14.988-33.482 33.479-33.482C56.73 2.533 71.72 17.521 71.72 36.014z" fill="#cecfd1"/><path d="M71.695 35.995c0 18.447-14.955 33.4-33.4 33.4-18.448 0-33.403-14.954-33.403-33.4 0-18.452 14.954-33.405 33.403-33.405 18.445 0 33.4 14.954 33.4 33.405z" fill="#cfd0d2"/><path d="M71.672 35.976c0 18.405-14.922 33.325-33.324 33.325-18.407 0-33.327-14.92-33.327-33.325 0-18.41 14.92-33.329 33.327-33.329 18.402 0 33.324 14.919 33.324 33.329z" fill="#d0d1d3"/><path d="M71.646 35.957c0 18.363-14.886 33.248-33.248 33.248-18.365 0-33.251-14.885-33.251-33.248 0-18.367 14.886-33.253 33.251-33.253 18.362 0 33.248 14.885 33.248 33.253z" fill="#d0d2d3"/><path d="M71.623 35.938c0 18.321-14.853 33.172-33.171 33.172-18.323 0-33.176-14.852-33.176-33.172 0-18.325 14.852-33.177 33.176-33.177 18.318 0 33.171 14.851 33.171 33.177z" fill="#d1d3d4"/><path d="M71.572 35.911c0 18.262-14.806 33.065-33.066 33.065-18.263 0-33.067-14.803-33.067-33.065 0-18.266 14.804-33.07 33.067-33.07 18.26 0 33.066 14.804 33.066 33.07z" fill="#d2d3d5"/><path d="M71.521 35.885c0 18.202-14.757 32.958-32.958 32.958-18.204 0-32.96-14.756-32.96-32.958 0-18.208 14.756-32.963 32.96-32.963 18.201 0 32.958 14.755 32.958 32.963z" fill="#d3d4d6"/><path d="M71.47 35.859c0 18.143-14.708 32.851-32.851 32.851-18.146 0-32.854-14.707-32.854-32.851 0-18.149 14.708-32.856 32.854-32.856 18.143 0 32.851 14.707 32.851 32.856z" fill="#d4d5d7"/><path d="M71.419 35.831c0 18.085-14.662 32.745-32.744 32.745-18.087 0-32.747-14.661-32.747-32.745 0-18.088 14.66-32.749 32.747-32.749 18.083.001 32.744 14.661 32.744 32.749z" fill="#d5d6d7"/><path d="M71.369 35.805c0 18.025-14.615 32.638-32.638 32.638-18.026 0-32.639-14.612-32.639-32.638 0-18.03 14.613-32.642 32.639-32.642 18.023 0 32.638 14.612 32.638 32.642z" fill="#d5d7d8"/><path d="M71.318 35.779c0 17.966-14.566 32.53-32.53 32.53-17.968 0-32.532-14.564-32.532-32.53 0-17.971 14.564-32.535 32.532-32.535 17.964 0 32.53 14.564 32.53 32.535z" fill="#d6d7d9"/><path d="M71.267 35.752c0 17.907-14.517 32.424-32.423 32.424-17.909 0-32.425-14.516-32.425-32.424 0-17.912 14.516-32.428 32.425-32.428 17.906 0 32.423 14.516 32.423 32.428z" fill="#d7d8da"/><path d="M71.216 35.726c0 17.848-14.47 32.316-32.315 32.316-17.85 0-32.319-14.468-32.319-32.316 0-17.853 14.469-32.321 32.319-32.321 17.845 0 32.315 14.468 32.315 32.321z" fill="#d8d9db"/><path d="M71.165 35.699c0 17.789-14.421 32.209-32.21 32.209-17.79 0-32.21-14.42-32.21-32.209 0-17.794 14.42-32.214 32.21-32.214 17.789-.001 32.21 14.42 32.21 32.214z" fill="#d8d9db"/><path d="M71.115 35.673c0 17.73-14.372 32.103-32.103 32.103S6.909 53.404 6.909 35.673c0-17.735 14.372-32.107 32.103-32.107 17.73-.001 32.103 14.372 32.103 32.107z" fill="#d9dadb"/><path d="M71.064 35.646c0 17.671-14.325 31.995-31.995 31.995-17.672 0-31.997-14.324-31.997-31.995 0-17.676 14.324-32 31.997-32 17.669 0 31.995 14.325 31.995 32z" fill="#d9dbdc"/><path d="M71.013 35.619c0 17.612-14.276 31.888-31.887 31.888-17.614 0-31.89-14.276-31.89-31.888 0-17.616 14.276-31.893 31.89-31.893 17.61 0 31.887 14.277 31.887 31.893z" fill="#dadcdd"/><path d="M70.962 35.593c0 17.553-14.229 31.781-31.782 31.781S7.399 53.145 7.399 35.593c0-17.557 14.228-31.786 31.781-31.786 17.552 0 31.782 14.229 31.782 31.786z" fill="#dbdcde"/><path d="M70.911 35.567c0 17.494-14.181 31.674-31.674 31.674-17.495 0-31.675-14.18-31.675-31.674 0-17.498 14.18-31.68 31.675-31.68 17.493 0 31.674 14.181 31.674 31.68z" fill="#dcddde"/><path d="M70.862 35.54c0 17.435-14.136 31.568-31.569 31.568-17.436 0-31.568-14.133-31.568-31.568 0-17.439 14.132-31.572 31.568-31.572 17.434-.001 31.569 14.133 31.569 31.572z" fill="#dddedf"/><path d="M70.812 35.513c0 17.375-14.087 31.46-31.461 31.46-17.377 0-31.462-14.085-31.462-31.46 0-17.38 14.084-31.465 31.462-31.465 17.374 0 31.461 14.085 31.461 31.465z" fill="#dedfe0"/><path d="M70.761 35.487c0 17.316-14.038 31.353-31.356 31.353-17.317 0-31.353-14.037-31.353-31.353 0-17.321 14.036-31.359 31.353-31.359 17.318 0 31.356 14.038 31.356 31.359z" fill="#dee0e1"/><path d="M70.71 35.46c0 17.258-13.991 31.247-31.248 31.247-17.258 0-31.246-13.989-31.246-31.247 0-17.262 13.988-31.252 31.246-31.252 17.257 0 31.248 13.99 31.248 31.252z" fill="#dfe0e2"/><path d="M70.659 35.434c0 17.199-13.942 31.139-31.141 31.139-17.199 0-31.14-13.941-31.14-31.139 0-17.203 13.94-31.145 31.14-31.145 17.199 0 31.141 13.942 31.141 31.145z" fill="#e0e1e2"/><path d="M70.593 35.394c0 17.102-13.864 30.966-30.967 30.966-17.104 0-30.966-13.864-30.966-30.966 0-17.107 13.863-30.971 30.966-30.971s30.967 13.864 30.967 30.971z" fill="#e1e2e3"/><path d="M70.526 35.354c0 17.008-13.786 30.793-30.793 30.793-17.009 0-30.794-13.785-30.794-30.793 0-17.01 13.785-30.798 30.794-30.798 17.007 0 30.793 13.787 30.793 30.798z" fill="#e2e3e4"/><path d="M70.46 35.314c0 16.911-13.71 30.62-30.621 30.62-16.911 0-30.618-13.708-30.618-30.62C9.22 18.399 22.928 4.69 39.839 4.69c16.911 0 30.621 13.709 30.621 30.624z" fill="#e3e4e5"/><path d="M70.395 35.275c0 16.815-13.634 30.446-30.449 30.446S9.5 52.09 9.5 35.275c0-16.819 13.63-30.451 30.446-30.451s30.449 13.631 30.449 30.451z" fill="#e3e4e5"/><path d="M70.329 35.235c0 16.72-13.553 30.273-30.275 30.273-16.719 0-30.272-13.553-30.272-30.273 0-16.723 13.553-30.277 30.272-30.277 16.721-.001 30.275 13.554 30.275 30.277z" fill="#e4e5e6"/><path d="M70.262 35.195c0 16.624-13.477 30.101-30.101 30.101S10.062 51.82 10.062 35.195c0-16.627 13.475-30.104 30.099-30.104 16.624 0 30.101 13.477 30.101 30.104z" fill="#e5e6e7"/><path d="M70.196 35.156c0 16.528-13.399 29.927-29.927 29.927S10.342 51.684 10.342 35.156c0-16.532 13.399-29.931 29.927-29.931s29.927 13.398 29.927 29.931z" fill="#e6e7e8"/><path d="M70.129 35.116c0 16.432-13.321 29.754-29.753 29.754-16.432 0-29.753-13.321-29.753-29.754 0-16.436 13.321-29.758 29.753-29.758 16.433 0 29.753 13.322 29.753 29.758z" fill="#e7e8e9"/><path d="M70.063 35.076c0 16.337-13.243 29.58-29.579 29.58s-29.58-13.243-29.58-29.58c0-16.341 13.244-29.584 29.58-29.584s29.579 13.244 29.579 29.584z" fill="#e7e8e9"/><path d="M69.998 35.036c0 16.241-13.166 29.407-29.407 29.407S11.184 51.277 11.184 35.036c0-16.245 13.166-29.411 29.407-29.411 16.241.001 29.407 13.167 29.407 29.411z" fill="#e8e8e9"/><path d="M69.932 34.997c0 16.145-13.088 29.235-29.235 29.235-16.144 0-29.231-13.09-29.231-29.235 0-16.149 13.088-29.237 29.231-29.237 16.147 0 29.235 13.088 29.235 29.237z" fill="#e9e9ea"/><path d="M69.865 34.957c0 16.049-13.01 29.061-29.061 29.061-16.048 0-29.059-13.012-29.059-29.061 0-16.053 13.011-29.064 29.059-29.064 16.052 0 29.061 13.011 29.061 29.064z" fill="#e9eaeb"/><path d="M69.799 34.918c0 15.953-12.932 28.888-28.887 28.888-15.952 0-28.885-12.934-28.885-28.888 0-15.957 12.934-28.891 28.885-28.891 15.955 0 28.887 12.933 28.887 28.891z" fill="#eaebec"/><path d="M69.733 34.878c0 15.858-12.854 28.714-28.713 28.714-15.856 0-28.712-12.857-28.712-28.714 0-15.862 12.856-28.717 28.712-28.717 15.859 0 28.713 12.855 28.713 28.717z" fill="#ebeced"/><path d="M69.668 34.838c0 15.762-12.777 28.541-28.541 28.541-15.76 0-28.539-12.779-28.539-28.541 0-15.766 12.779-28.544 28.539-28.544 15.764 0 28.541 12.778 28.541 28.544z" fill="#eceded"/><path d="M69.602 34.798c0 15.666-12.699 28.368-28.367 28.368-15.665 0-28.366-12.702-28.366-28.368 0-15.67 12.702-28.37 28.366-28.37 15.668 0 28.367 12.7 28.367 28.37z" fill="#ededee"/><path d="M69.412 34.732c0 15.481-12.549 28.032-28.031 28.032-15.48 0-28.031-12.551-28.031-28.032 0-15.485 12.551-28.035 28.031-28.035 15.483 0 28.031 12.55 28.031 28.035z" fill="#eeeeef"/><path d="M69.222 34.667c0 15.296-12.398 27.697-27.695 27.697-15.295 0-27.696-12.401-27.696-27.697 0-15.3 12.401-27.7 27.696-27.7 15.297 0 27.695 12.4 27.695 27.7z" fill="#eeeff0"/><path d="M69.035 34.6c0 15.111-12.25 27.362-27.36 27.362S14.314 49.711 14.314 34.6c0-15.115 12.251-27.365 27.361-27.365 15.11.001 27.36 12.251 27.36 27.365z" fill="#eff0f0"/><path d="M68.845 34.535c0 14.925-12.099 27.026-27.024 27.026S14.795 49.46 14.795 34.535c0-14.929 12.101-27.03 27.026-27.03 14.925 0 27.024 12.101 27.024 27.03z" fill="#f0f1f1"/><path d="M68.657 34.469c0 14.74-11.948 26.69-26.69 26.69-14.739 0-26.69-11.951-26.69-26.69 0-14.745 11.951-26.695 26.69-26.695 14.742.001 26.69 11.951 26.69 26.695z" fill="#f1f1f2"/><path d="M68.468 34.403c0 14.555-11.798 26.356-26.354 26.356-14.554 0-26.355-11.801-26.355-26.356 0-14.559 11.801-26.359 26.355-26.359 14.556 0 26.354 11.8 26.354 26.359z" fill="#f2f2f3"/><path d="M68.278 34.338c0 14.369-11.647 26.02-26.018 26.02-14.37 0-26.02-11.65-26.02-26.02 0-14.374 11.65-26.024 26.02-26.024 14.371-.001 26.018 11.649 26.018 26.024z" fill="#f3f3f3"/><path d="M68.091 34.272c0 14.184-11.499 25.685-25.683 25.685S16.723 48.456 16.723 34.272c0-14.189 11.501-25.689 25.685-25.689s25.683 11.5 25.683 25.689z" fill="#f3f4f4"/><path d="M67.901 34.206c0 13.999-11.348 25.349-25.347 25.349s-25.35-11.35-25.35-25.349c0-14.003 11.351-25.354 25.35-25.354s25.347 11.35 25.347 25.354z" fill="#f3f4f4"/><path d="M67.711 34.14c0 13.814-11.196 25.014-25.011 25.014s-25.015-11.2-25.015-25.014c0-13.819 11.2-25.019 25.015-25.019 13.816 0 25.011 11.201 25.011 25.019z" fill="#f4f5f5"/><path d="M67.524 34.074c0 13.629-11.048 24.678-24.677 24.678s-24.68-11.05-24.68-24.678c0-13.633 11.051-24.684 24.68-24.684s24.677 11.051 24.677 24.684z" fill="#f5f6f6"/><path d="M67.289 33.98c0 13.366-10.836 24.203-24.204 24.203-13.366 0-24.204-10.837-24.204-24.203 0-13.372 10.838-24.209 24.204-24.209 13.368 0 24.204 10.838 24.204 24.209z" fill="#f6f6f7"/><path d="M67.053 33.886c0 13.105-10.623 23.729-23.729 23.729-13.104 0-23.729-10.624-23.729-23.729 0-13.11 10.625-23.734 23.729-23.734 13.105-.001 23.729 10.624 23.729 23.734z" fill="#f7f7f8"/><path d="M66.818 33.791c0 12.843-10.41 23.255-23.254 23.255-12.843 0-23.255-10.412-23.255-23.255 0-12.848 10.412-23.26 23.255-23.26 12.844 0 23.254 10.413 23.254 23.26z" fill="#f8f8f9"/><path d="M66.584 33.697c0 12.581-10.199 22.78-22.781 22.78-12.58 0-22.78-10.198-22.78-22.78 0-12.586 10.2-22.785 22.78-22.785 12.582 0 22.781 10.199 22.781 22.785z" fill="#f9f9fa"/><path d="M66.349 33.603c0 12.32-9.988 22.306-22.308 22.306-12.318 0-22.304-9.986-22.304-22.306 0-12.324 9.986-22.31 22.304-22.31 12.32-.001 22.308 9.986 22.308 22.31z" fill="#fafbfb"/><path d="M66.115 33.508c0 12.058-9.775 21.831-21.833 21.831-12.058 0-21.831-9.773-21.831-21.831 0-12.062 9.773-21.836 21.831-21.836s21.833 9.774 21.833 21.836z" fill="#fafbfb"/><path d="M65.794 33.436c0 11.812-9.575 21.387-21.389 21.387-11.81 0-21.385-9.575-21.385-21.387 0-11.816 9.575-21.391 21.385-21.391 11.814.001 21.389 9.575 21.389 21.391z" fill="#fcfcfc"/><path d="M65.473 33.365c0 11.566-9.376 20.942-20.944 20.942-11.565 0-20.941-9.376-20.941-20.942 0-11.57 9.376-20.946 20.941-20.946 11.568 0 20.944 9.376 20.944 20.946z" fill="#fdfdfd"/><path d="M65.153 33.294c0 11.32-9.177 20.498-20.498 20.498-11.32 0-20.497-9.178-20.497-20.498 0-11.325 9.177-20.501 20.497-20.501 11.321-.001 20.498 9.176 20.498 20.501z" fill="#fdfdfd"/><path d="M64.832 33.222c0 11.074-8.978 20.053-20.052 20.053s-20.053-8.979-20.053-20.053c0-11.079 8.979-20.056 20.053-20.056 11.075 0 20.052 8.977 20.052 20.056z" fill="#fff"/></g></g><path d="M58.008 110.218l-4.315-4.458a.36.36 0 0 1-.062-.483c.008-.01 3.293-5.54 3.293-5.54a.744.744 0 0 0 .08-.317.638.638 0 0 0-.637-.637H53.96a.657.657 0 0 0-.575.33l-2.086 3.601a.324.324 0 0 1-.455.072c0-.002-3.37-3.463-3.37-3.463a.323.323 0 0 1 .028-.448l.046-.039c1.902-1.107 4.072-2.736 4.072-5.604 0-3.296-2.367-5.51-5.887-5.51-3.447 0-6.066 2.309-6.066 5.754 0 1.516.632 3.028 1.94 4.62l.03.035c.05.063.075.15.065.232a.352.352 0 0 1-.125.225c-2.866 1.631-4.316 3.79-4.316 6.432 0 4.48 3.752 6.828 7.457 6.828 2.545 0 4.53-.976 6.441-3.17l.037-.048c.114-.113.324-.113.454.018l2.318 2.4c.002.004.06.063.06.063.126.12.286.186.456.186h3.062a.635.635 0 0 0 .639-.637.643.643 0 0 0-.176-.442zM45.79 91.048c1.45 0 2.226 1 2.226 2.218 0 1.426-1.273 2.253-2.806 3.11l-.078.033a.305.305 0 0 1-.369-.061 1.968 1.968 0 0 0-.039-.035c-.667-.732-1.45-1.889-1.45-2.732-.002-1.42 1.018-2.533 2.516-2.533zm3.094 15.218l-.014.018c-1.111 1.324-2.336 2.21-4.113 2.21-2.113 0-3.763-1.52-3.763-3.456 0-1.714.732-2.73 2.903-4.04.153-.093.318-.07.43.032l4.523 4.743c.084.078.12.156.12.244v.01a.384.384 0 0 1-.086.24zM34.405 108.45l-.136.005c-3.466 0-5.222-1.84-5.222-5.455V92.338c0-.184.154-.334.34-.334h5.429a.651.651 0 0 0 .647-.646v-2.37a.648.648 0 0 0-.647-.646h-5.412a.353.353 0 0 1-.357-.352v-4.898a.643.643 0 0 0-.617-.666h-.074l-2.775.218a.64.64 0 0 0-.636.643v4.72a.335.335 0 0 1-.338.334h-3.41a.643.643 0 0 0-.646.643l-.006 2.383c.006.176.076.34.203.451.127.121.291.186.462.186h3.4c.186 0 .338.147.338.334l-.003 11.375c0 6.106 4.599 8.287 8.628 8.287 0 0 .478.008.845-.029.363-.035.636-.289.636-.646v-2.235a.645.645 0 0 0-.65-.64zM18.862 110.376c-.22-.62-.281-1.305-.3-1.602-.011-.22-.02-1.117-.02-1.117V96.392c0-5.952-4.208-8.067-8.147-8.067-3.118 0-5.964.814-7.794 2.036a.677.677 0 0 0-.287.41c-.034.165 0 .329.093.47.012.023 1.451 1.962 1.451 1.962a.636.636 0 0 0 .884.143l.197-.13a9.242 9.242 0 0 1 4.84-1.403c4.863 0 4.72 3.808 4.72 4.303 0 .254-.15.315-.334.309l-.75-.016C9.642 96.27.076 97.556.076 105.14c0 4.457 3.714 6.727 7.177 6.727 3.358 0 6.058-1.332 7.406-2.96l.014-.019a.088.088 0 0 1 .07-.033c.045 0 .084.04.084.084-.002.211 0 .684.046 1.093.03.368.079.642.14.843.054.178.17.358.34.442a.66.66 0 0 0 .27.07l2.694.002a.63.63 0 0 0 .636-.62c0-.11-.09-.393-.09-.393zm-4.188-8.824c-.55 3.887-2.464 6.134-6.002 6.715-2.489.409-4.743-.616-4.864-3.282-.134-2.927 3.266-5.387 9.548-5.117 0 0 .462.03.771.065.276.031.446.115.552.281.1.154.118.463-.005 1.338zM70.957 108.45l-.139.005c-3.463 0-5.22-1.84-5.22-5.455V92.338c0-.184.153-.334.337-.334h5.428c.36 0 .652-.293.652-.646v-2.37a.65.65 0 0 0-.652-.646h-5.408a.352.352 0 0 1-.358-.352v-4.898a.644.644 0 0 0-.62-.666h-.073l-2.776.218a.64.64 0 0 0-.635.643v4.72a.336.336 0 0 1-.342.334h-3.406a.64.64 0 0 0-.644.643l-.006 2.383a.63.63 0 0 0 .2.451.66.66 0 0 0 .465.186h3.396c.184 0 .338.147.338.334v11.375c0 6.106 4.594 8.287 8.628 8.287 0 0 .478.008.843-.029.364-.035.633-.289.633-.646l.004-2.235a.641.641 0 0 0-.645-.64z"/><path d="M2.943 24.976c0-1.54.22-2.624.637-3.588a36.632 36.632 0 0 1 2.356-4.142 2.517 2.517 0 0 0-.357 1.311c0 3.35 8.2 7.701 19.394 9.126 3.792.485 13.832 1.854 21.606 1.213 15.689-1.295 19.179-6.775 19.179-10.339 0-.974-.53-2.396-1.056-3.223a37.22 37.22 0 0 1 2.003 2.934c1.2 2.09 1.05 2.921 1.05 3.284 0 7.275-13.541 12.025-22.602 14.5-23.244 6.347-42.21-2.302-42.21-11.076zm7.416-10.197c0 3.28 4.775 8.527 18.609 8.527 8.202 0 14.823-1.588 19.82-3.251 8.013-2.662 11.98-5.918 11.837-8.34-.023-.377-.17-.989-.615-1.474a36.415 36.415 0 0 0-5.785-4.23c1.367.798 2.14 1.724 2.14 2.756 0 3.614-8.826 6.925-20.356 7.221-11.53.297-21.082-2.54-21.34-6.146-.086-1.191.775-2.367 2.406-3.409a35.796 35.796 0 0 0-3.576 2.527c-3.209 2.662-3.14 5.473-3.14 5.819zm30.016 42.358c-7.02.25-19.382-2.168-27.165-5.347C6.945 49.23.745 44.249.08 39.497c.075 1.144.204 2.273.386 3.383 3.842 20.95 30.23 19.752 34.776 19.248 33.193-3.681 36.05-17.854 36.485-20.653.07-.584.13-1.17.172-1.762-.584 3.731-6.196 16.518-31.524 17.424zm-25.24 4.778C9.177 59.452 5.055 55.358 3.4 52.367a36.14 36.14 0 0 0 5.887 8.835c7.761 7.291 19.693 8.173 25.17 8.173 23.2 0 31.486-12.193 33.358-15.455.348-.652.674-1.322.983-2-3.672 7.564-22.714 22.782-53.664 9.995zm56.185-30.47c0-.58-.071-1.734-.342-2.92a35.462 35.462 0 0 0-.664-2.369c.435 1.465.364 2.49.364 2.884 0 1.786-2.218 12.707-24.03 14.692-1.886.17-15.744.385-27.791-2.662-8.014-2.027-16.061-5.946-17.58-11.386-.235-.85-.133-1.632.055-2.369a35.962 35.962 0 0 0-1.214 6.768c.14 5.73 5.113 12.41 14.23 15.285 10.41 3.277 16.802 3.382 31.943.012C71.559 43.745 71.32 32.678 71.32 31.445z" fill="#32a5dd"/><path d="M45.154 36.053c.613-.168 1.246-.347 1.896-.536a42.161 42.161 0 0 0-8.832-.923c-5.836 0-11.277 1.162-15.869 3.169 6.584.916 14.414.58 22.805-1.71zm-2.978-14.171a65.106 65.106 0 0 0 6.613-1.828 50.61 50.61 0 0 0 2.99-1.095c-2.748-.504-5.193-.822-6.842-.971-6.273-.572-15.613 1.21-18.035 1.711-.747.153-4.157.86-8.311 2.308.977.29 2.054.541 3.237.744 3.764-1.056 7.658-1.655 11.354-1.655 2.446.001 5.576.261 8.994.786zm.718 21.93c-2.289-.011-5.402-.105-8.91-.384-6.224.729-11.51 3.505-14.519 7.354.996.23 1.974.423 2.946.581 3.174-3.484 8.536-5.773 14.62-5.773 4.44 0 8.497 1.22 11.596 3.232a75.643 75.643 0 0 0 3.435-.95c-2.473-1.895-5.622-3.317-9.168-4.06zm20.419-15.358c1.812-1.34 3.205-2.824 3.918-4.457a23.016 23.016 0 0 0-2.924-1.503c-1.058 1.355-2.789 2.698-5.494 3.823a42.213 42.213 0 0 1 4.5 2.137zm-7.971 4.235c1.906-.774 3.752-1.635 5.41-2.583-1.723-.919-3.726-1.753-6.057-2.463-2.25.557-4.93.991-8.114 1.254-.948.078-1.926.126-2.926.151 2.226.426 4.355.996 6.375 1.664a71.974 71.974 0 0 1 5.312 1.977zm4.25 8.167c-1.604.65-3.438 1.234-5.53 1.719a23.069 23.069 0 0 1 4.07 3.095 38.331 38.331 0 0 0 4.483-2.279 24.82 24.82 0 0 0-3.023-2.535zM12.547 24.51c-2.813 1.379-5.57 3.091-7.78 5.186.335.43.716.852 1.142 1.265 2.419-2.139 5.465-4.05 8.84-5.608a36.219 36.219 0 0 1-2.202-.843zm8.967 17.175a62.786 62.786 0 0 1-4.329-1.067c-2.92 2.017-5.234 4.456-6.737 7.17a26.08 26.08 0 0 0 2.944 1.253 16.342 16.342 0 0 1 3.456-4.24c1.344-1.185 2.918-2.23 4.666-3.116zm-10.082 14.76c0-1.72.298-3.42.879-5.04a32.65 32.65 0 0 1-2.865-1.453 14.59 14.59 0 0 0-.952 5.166c0 .352.016.702.043 1.048a24.563 24.563 0 0 0 3.002 1.92 12.82 12.82 0 0 1-.107-1.642zM31 28.404c-2.543-.265-4.678-.548-6.026-.72-.875-.112-1.73-.24-2.567-.386-4.843 1.535-9.093 3.847-12.415 6.612.676.373 1.394.729 2.152 1.064 4.831-3.514 11.432-5.913 18.856-6.57zM20.894 64.024a71.859 71.859 0 0 1-3.02-1.038c.817 1.746 2.067 3.342 3.656 4.727a43.67 43.67 0 0 0 3.902.881c-1.928-1.252-3.487-2.809-4.538-4.57zM70.468 26.66l-.113-.366c.027.1.053.193.074.287l.04.079zM4.89 43.871c.893-2.3 2.353-4.445 4.275-6.363a28.915 28.915 0 0 1-1.852-1.047c-1.688 1.85-2.987 3.837-3.82 5.885a18.51 18.51 0 0 0 1.397 1.526zm59.835-5.79c.853.709 1.576 1.413 2.187 2.109a17.214 17.214 0 0 0 2.16-2.433 17.54 17.54 0 0 0-1.511-2.19 17.755 17.755 0 0 1-2.836 2.513zM8.877 58.326c.311 1.307.804 2.574 1.445 3.789a25.737 25.737 0 0 0 4.075 2.758c-1.036-1.391-1.83-2.885-2.334-4.453a27.712 27.712 0 0 1-3.186-2.094zm41.92 8.586a37.38 37.38 0 0 0 4.634-1.912 12.8 12.8 0 0 0 1.344-2.377 38.064 38.064 0 0 1-3.75 1.624c-.6.96-1.35 1.853-2.229 2.665zm3.219-11.77c.326.864.538 1.765.62 2.692a47.993 47.993 0 0 0 2.962-1.226 11.318 11.318 0 0 0-.632-2.429c-.93.344-1.91.667-2.95.963zm6.408-42.323c-1.653-.573-3.62-.999-5.815-1.285-2.568 1.965-7.75 3.558-14.203 4.186 4.06.406 9.002 1.105 13.717 2.207 3.566-1.723 5.672-3.527 6.301-5.108zM14.98 10.835c-1.615.68-3.071 1.377-4.311 2.07a6.086 6.086 0 0 0-.302 1.54c1.592-.82 3.488-1.658 5.606-2.473-.436-.364-.772-.743-.993-1.137zM2.524 32.232C1.592 33.52.872 34.926.446 36.457c.113.466.254.936.428 1.405.54-1.528 1.436-3.02 2.621-4.44a11.227 11.227 0 0 1-.97-1.19zm1.357 16.954c0-1.03.112-2.042.324-3.032a20.022 20.022 0 0 1-1.45-1.49 12.802 12.802 0 0 0-.243 4.39c.473.93 1.002 1.796 1.582 2.605a14.637 14.637 0 0 1-.213-2.473zm9.07-29.97c3.795-1.725 8.455-3.1 13.95-3.67a40.308 40.308 0 0 1-5.15-.99c-3.605.996-6.99 2.191-9.938 3.566.32.37.697.736 1.137 1.095zm54.135 30.996a15.83 15.83 0 0 0-.668-1.592 25.432 25.432 0 0 1-4.181 3.07c.251.663.455 1.343.601 2.034 1.734-1.163 3.127-2.35 4.248-3.512zm3.881-7.631a17.514 17.514 0 0 1-1.348 2.371c.149.526.248 1.031.31 1.52.586-1.017.98-1.95 1.249-2.746a17.44 17.44 0 0 0-.211-1.145zm.027-13.983a29.977 29.977 0 0 0-.262-1.02 4.74 4.74 0 0 0-.168-.354c.153.895.115 1.526.115 1.816 0 .585-.239 2.15-1.324 4.06a12.3 12.3 0 0 1 1.297 1.795c.69-1.778.668-3.073.668-3.45 0-.57-.068-1.686-.326-2.847zM19.385 58.711c0-1.585.378-3.106 1.071-4.513-.892-.244-1.767-.5-2.618-.763a11.316 11.316 0 0 0-1.052 4.74c0 .746.075 1.48.221 2.195.89.28 1.784.522 2.671.729a9.9 9.9 0 0 1-.293-2.388zm43.542-.002a13.502 13.502 0 0 1-.366 1.528c2.94-2.609 4.542-5.077 5.244-6.303.027-.045.051-.092.074-.137l-.027-.261c-1.095 1.615-2.745 3.42-4.925 5.173zm-6.61-50.383c1.437.585 2.75 1.31 3.905 2.195a1.782 1.782 0 0 0-.199-.263 35.695 35.695 0 0 0-3.672-2.891 12.017 12.017 0 0 0-1.027-.572c.534.477.873.988.992 1.53zM5.913 17.288l-.302.464c.053-.065.11-.133.17-.2.04-.091.085-.179.132-.264zm58.98 4.337c.964.502 1.84 1.042 2.612 1.619.166-.548.25-1.112.25-1.692 0-.357.145-1.172-1.007-3.207-.618-1.016-1.285-2-2-2.947-.01-.01-.017-.02-.026-.03.521.833 1.037 2.229 1.037 3.19-.001.93-.239 1.987-.865 3.067zm-56.936.35a9.892 9.892 0 0 1-1.172-1.029c-1.555 1.072-2.852 2.22-3.831 3.436-.008.192-.012.388-.012.594 0 .385.038.77.11 1.151 1.2-1.339 2.838-2.776 4.905-4.152zm-4.54 30.422a36.213 36.213 0 0 0 2.917 5.074 16.848 16.848 0 0 1-1.478-2.981 14.893 14.893 0 0 1-1.439-2.093zM1.315 27.388a36.649 36.649 0 0 0-.593 2.457c.092-.32.233-.667.423-1.04a5.215 5.215 0 0 1 .17-1.417zM.314 40.545a6.97 6.97 0 0 1-.233-1.043c.06.88.148 1.752.27 2.613a8.685 8.685 0 0 1-.037-1.57z" fill="#0096d7"/></svg>