<svg xmlns="http://www.w3.org/2000/svg" width="2500" height="2500" viewBox="0 0 192.756 192.756"><g fill-rule="evenodd" clip-rule="evenodd"><path fill="#fff" d="M0 0h192.756v192.756H0V0z"/><path fill="#2d4d7e" d="M112.021 121.357v-18.423l-39.324 11 48.399-25.301v17.051l46.75-17.051V51.784l-55.825 18.7v-18.15L72.697 63.333l48.399-25.299v17.05l46.75-17.05v-35.2H27.322v148.498h140.524v-48.949l-55.825 18.974z"/><path d="M38.673 159.277h-8.356v4.768h6.954v3.33h-6.954v4.992h8.853v3.36H26.372v-19.838h12.301v3.388zM46.316 155.889l6.136 13.381-.112-13.381h3.94v19.838h-4.237l-7.655-16.041.087 16.041h-3.944v-19.838h5.785zM71.14 159.277h-5.142v16.45h-3.974v-16.45h-5.142v-3.388H71.14v3.388zM83.751 159.277h-8.356v4.768h6.954v3.33h-6.954v4.992h8.854v3.36H71.451v-19.838h12.3v3.388zM91.628 164.127c.823 0 1.52-.043 2.089-.137a2.738 2.738 0 0 0 1.47-.691c.41-.369.614-.93.614-1.684 0-.707-.209-1.238-.624-1.588a2.97 2.97 0 0 0-1.48-.652 14.212 14.212 0 0 0-2.04-.127h-2.074v4.879h2.045zm-5.989-8.238h6.511c1.022 0 1.884.043 2.59.135a5.683 5.683 0 0 1 2.002.648 5.418 5.418 0 0 1 2.157 2.031c.547.885.818 1.836.818 2.848 0 1.16-.293 2.182-.871 3.059-.584.881-1.402 1.559-2.459 2.025l3.858 9.092h-4.028l-3.594-8.299h-3.038v8.299h-3.944v-19.838h-.002zM107.102 164.77c1.424 0 2.533-.16 3.332-.48.799-.322 1.197-1.076 1.197-2.266 0-1.217-.385-1.986-1.148-2.303-.766-.316-1.852-.473-3.258-.473h-1.729v5.521h1.606v.001zm-5.551-8.881h6.219c1.092 0 2.016.053 2.771.154a5.851 5.851 0 0 1 2.113.721 5.831 5.831 0 0 1 2.137 2.158c.541.926.814 1.889.814 2.893 0 1.611-.346 2.877-1.033 3.812-.686.93-1.615 1.582-2.789 1.947-1.17.371-2.566.557-4.184.557h-2.104v7.596h-3.945v-19.838h.001zM122.957 164.127c.822 0 1.518-.043 2.088-.137a2.738 2.738 0 0 0 1.471-.691c.41-.369.613-.93.613-1.684 0-.707-.209-1.238-.623-1.588a2.97 2.97 0 0 0-1.48-.652 14.217 14.217 0 0 0-2.041-.127h-2.074v4.879h2.046zm-5.99-8.238h6.512c1.021 0 1.883.043 2.59.135a5.667 5.667 0 0 1 2 .648 5.44 5.44 0 0 1 2.158 2.031c.545.885.818 1.836.818 2.848 0 1.16-.293 2.182-.871 3.059-.584.881-1.402 1.559-2.459 2.025l3.855 9.092h-4.027l-3.594-8.299h-3.039v8.299h-3.943v-19.838zM132.908 175.727v-19.838h3.944v19.838h-3.944zM147.531 161.73c-.518-1.83-1.434-2.746-2.742-2.746-.619 0-1.16.195-1.627.59-.469.389-.721.896-.77 1.514 0 .854.283 1.428.842 1.725.566.297 1.691.75 3.379 1.359 1.691.607 2.947 1.324 3.77 2.146.824.828 1.238 2.055 1.238 3.682 0 .936-.18 1.783-.545 2.533a5.559 5.559 0 0 1-1.496 1.908 6.79 6.79 0 0 1-2.178 1.174 8.297 8.297 0 0 1-2.59.404 8.413 8.413 0 0 1-3.34-.682c-1.062-.453-1.895-1.125-2.504-2.006-.385-.596-.754-1.588-1.109-2.986l4.012-.584c.225.959.58 1.68 1.076 2.168.492.486 1.223.729 2.188.729.711 0 1.334-.232 1.865-.701.531-.461.793-1.047.793-1.752 0-.867-.316-1.477-.955-1.832-.637-.35-1.771-.822-3.408-1.402-1.637-.584-2.869-1.246-3.691-1.996-.822-.744-1.232-1.836-1.232-3.273 0-1.094.293-2.113.873-3.053a6.428 6.428 0 0 1 2.328-2.234 6.133 6.133 0 0 1 3.076-.818c1.783 0 3.225.477 4.33 1.432 1.105.959 1.787 2.312 2.035 4.061l-3.618.64zM165.896 159.277h-8.355v4.768h6.953v3.33h-6.953v4.992h8.852v3.36h-12.797v-19.838h12.3v3.388zM26.851 183.941h1.111c.91 0 1.651-.131 2.224-.389.574-.258.861-.773.861-1.551 0-.598-.154-1.045-.461-1.346a2.124 2.124 0 0 0-1.137-.568 9.255 9.255 0 0 0-1.627-.121h-.97v3.975h-.001zm-1.127-4.927h2.019c.657 0 1.208.025 1.651.076.445.051.86.172 1.244.361.454.203.824.527 1.108.979.285.447.428.92.428 1.418 0 .398-.073.787-.216 1.162a2.904 2.904 0 0 1-.629.994 2.534 2.534 0 0 1-.972.629c-.54.176-1.333.264-2.378.264h-1.126v4.822h-1.127v-10.705h-.002zM33.807 183.941h1.143c.628 0 1.155-.039 1.575-.119.42-.082.767-.271 1.038-.572.274-.299.409-.758.409-1.373 0-.734-.245-1.234-.735-1.506-.49-.268-1.132-.404-1.927-.404h-1.502v3.974h-.001zm-1.126-4.927h1.94c1.106 0 1.982.088 2.628.266.357.115.678.311.962.584.285.273.504.59.657.949.154.359.23.73.23 1.111 0 .672-.175 1.244-.527 1.719-.349.471-.847.826-1.494 1.066l2.07 5.01H37.89l-1.987-4.869c-.329.031-.663.047-1 .047h-1.098v4.822h-1.126v-10.705h.002zM40.451 184.348c0 .684.047 1.297.138 1.84.094.543.271 1.045.535 1.512.237.398.529.721.882.957.352.238.74.357 1.17.357.704 0 1.262-.248 1.671-.746.407-.496.688-1.096.84-1.799s.227-1.412.227-2.121a9.87 9.87 0 0 0-.227-2.09c-.151-.701-.433-1.299-.84-1.795-.409-.496-.968-.742-1.671-.742-.709 0-1.265.246-1.671.746-.404.494-.681 1.09-.829 1.783a9.88 9.88 0 0 0-.225 2.098zm-1.127.004c0-.893.12-1.758.362-2.598s.649-1.541 1.221-2.102c.571-.561 1.317-.84 2.238-.84.688 0 1.282.166 1.786.504.503.332.911.777 1.221 1.326.311.553.537 1.148.678 1.783.141.637.211 1.279.211 1.926 0 .654-.068 1.305-.206 1.951a6.437 6.437 0 0 1-.663 1.787 3.8 3.8 0 0 1-1.217 1.326c-.506.336-1.111.506-1.81.506-.705 0-1.305-.168-1.8-.504a3.65 3.65 0 0 1-1.189-1.336c-.297-.555-.511-1.148-.639-1.787s-.193-1.286-.193-1.942zM49.016 188.703h.971c1.407 0 2.409-.361 3.004-1.084.594-.725.892-1.812.892-3.268 0-.986-.117-1.795-.352-2.428a2.677 2.677 0 0 0-1.208-1.438c-.566-.325-1.335-.485-2.305-.485h-1.001v8.703h-.001zm-1.127 1.016v-10.705h2.144c.884 0 1.643.113 2.277.346.633.232 1.152.578 1.554 1.033.402.457.699 1.014.889 1.68.19.662.288 1.432.288 2.309 0 .869-.1 1.639-.297 2.301-.199.662-.506 1.221-.921 1.672s-.946.791-1.591 1.02c-.644.23-1.408.346-2.29.346h-2.053v-.002zM62.463 185.553c0 .564-.016 1.031-.047 1.4a4.076 4.076 0 0 1-.235 1.078 2.565 2.565 0 0 1-1.205 1.402 3.793 3.793 0 0 1-1.893.488 3.888 3.888 0 0 1-1.914-.488c-.587-.324-.988-.793-1.199-1.402a4.387 4.387 0 0 1-.242-1.094 14.766 14.766 0 0 1-.056-1.385v-6.539h1.127v6.576c0 .691.047 1.262.138 1.719.094.455.308.832.642 1.127.333.293.834.439 1.504.439.657 0 1.15-.146 1.481-.439.331-.295.542-.672.634-1.127.091-.457.138-1.027.138-1.719v-6.576h1.127v6.54zM69.294 182.254c-.203-.76-.469-1.359-.805-1.799-.334-.438-.84-.656-1.513-.656-.676 0-1.215.24-1.611.717-.397.477-.673 1.055-.825 1.736a9.476 9.476 0 0 0-.227 2.053c0 .777.06 1.502.183 2.172.12.674.378 1.246.772 1.727.396.477.965.717 1.708.717 1.129 0 1.922-.824 2.378-2.473l1.035.27a5.893 5.893 0 0 1-.644 1.621c-.284.48-.652.863-1.108 1.15-.456.289-.994.434-1.614.434-.991 0-1.775-.275-2.357-.82-.579-.547-.98-1.238-1.205-2.074-.221-.84-.333-1.75-.333-2.736 0-.646.071-1.291.211-1.93.139-.639.36-1.229.665-1.762a3.682 3.682 0 0 1 1.205-1.297c.504-.326 1.098-.49 1.787-.49.628 0 1.168.141 1.614.426.448.281.808.662 1.079 1.139.269.48.472 1.027.608 1.643l-1.003.232zM76.996 179.967h-2.895v9.752h-1.11v-9.752h-2.879v-.953h6.884v.953zM82.247 181.91c-.206-.66-.464-1.174-.774-1.535-.31-.365-.761-.549-1.353-.549-.54 0-1.012.154-1.414.463-.404.305-.605.723-.605 1.246 0 .561.19.975.574 1.24.381.27 1.025.6 1.93 1 .902.396 1.585.824 2.047 1.279.461.457.691 1.104.691 1.941 0 .584-.143 1.1-.428 1.543a2.807 2.807 0 0 1-1.16 1.025 3.65 3.65 0 0 1-1.604.357c-.662 0-1.233-.117-1.715-.355a3.06 3.06 0 0 1-1.189-1.021c-.313-.449-.558-.992-.741-1.627l1.093-.283c.115.426.287.812.516 1.162.229.346.517.619.866.82.347.201.74.303 1.184.303.398 0 .751-.084 1.061-.254.31-.166.553-.4.728-.703.174-.303.264-.645.264-1.029 0-.602-.204-1.047-.61-1.338-.409-.293-1.048-.619-1.922-.984-.874-.361-1.533-.75-1.979-1.17-.446-.418-.668-1.027-.668-1.828 0-.543.141-1.027.42-1.455.281-.428.654-.76 1.124-.994a3.32 3.32 0 0 1 1.507-.352c.433 0 .819.07 1.158.211.339.139.637.336.895.59.255.252.475.545.657.875.183.334.337.697.465 1.09l-1.018.332zM90.383 183.941h1.111c.91 0 1.651-.131 2.224-.389.574-.258.861-.773.861-1.551 0-.598-.153-1.045-.461-1.346a2.124 2.124 0 0 0-1.137-.568 9.255 9.255 0 0 0-1.627-.121h-.971v3.975zm-1.127-4.927h2.019c.657 0 1.208.025 1.651.076.445.051.86.172 1.244.361.454.203.824.527 1.108.979.285.447.428.92.428 1.418 0 .398-.072.787-.216 1.162a2.916 2.916 0 0 1-.628.994 2.542 2.542 0 0 1-.972.629c-.541.176-1.333.264-2.378.264h-1.127v4.822h-1.127v-10.705h-.002zM99.184 179.736l-1.406 5.568h2.893l-1.487-5.568zm-.764-.722h1.592l3.068 10.705h-1.158l-.971-3.412h-3.473l-.923 3.412h-1.158l3.023-10.705zM104.453 183.941h1.143c.627 0 1.154-.039 1.574-.119.42-.082.768-.271 1.037-.572.275-.299.41-.758.41-1.373 0-.734-.246-1.234-.734-1.506-.49-.268-1.133-.404-1.928-.404h-1.502v3.974zm-1.127-4.927h1.939c1.105 0 1.982.088 2.629.266.357.115.678.311.963.584.283.273.502.59.656.949s.23.73.23 1.111c0 .672-.176 1.244-.527 1.719-.35.471-.848.826-1.494 1.066l2.07 5.01h-1.256l-1.988-4.869c-.328.031-.662.047-.998.047h-1.098v4.822h-1.127v-10.705h.001zM116.338 179.967h-2.895v9.752h-1.111v-9.752h-2.879v-.953h6.885v.953zM123.717 189.719h-1.127l-3.883-7.543c-.146-.287-.34-.674-.574-1.164a44.75 44.75 0 0 0-.553-1.119c.035 1.543.049 2.436.049 2.676v7.15h-1.125v-10.705h1.783l3.285 6.352c.145.273.535 1.145 1.174 2.613-.104-1.236-.156-2.148-.156-2.732v-6.232h1.127v10.704zM130.609 179.967h-4.679v3.652h3.332v.969h-3.332v4.16h5.009v.971h-6.136v-10.705h5.806v.953zM132.588 183.941h1.143c.629 0 1.154-.039 1.574-.119.42-.082.768-.271 1.039-.572.273-.299.408-.758.408-1.373 0-.734-.244-1.234-.734-1.506-.49-.268-1.133-.404-1.928-.404h-1.502v3.974zm-1.127-4.927h1.941c1.105 0 1.98.088 2.627.266.357.115.68.311.963.584a2.867 2.867 0 0 1 .887 2.06c0 .672-.174 1.244-.527 1.719-.348.471-.848.826-1.494 1.066l2.072 5.01h-1.258l-1.986-4.869c-.33.031-.662.047-1 .047h-1.098v4.822h-1.127v-10.705z"/><path d="M143.439 181.91c-.205-.66-.463-1.174-.773-1.535-.311-.365-.762-.549-1.354-.549-.539 0-1.012.154-1.414.463-.404.305-.605.723-.605 1.246 0 .561.191.975.574 1.24.381.27 1.025.6 1.93 1 .902.396 1.586.824 2.049 1.279.461.457.689 1.104.689 1.941 0 .584-.143 1.1-.428 1.543a2.8 2.8 0 0 1-1.16 1.025 3.644 3.644 0 0 1-1.604.357c-.662 0-1.232-.117-1.715-.355a3.045 3.045 0 0 1-1.189-1.021c-.312-.449-.559-.992-.74-1.627l1.092-.283c.115.426.287.812.516 1.162.23.346.518.619.867.82.346.201.74.303 1.184.303.398 0 .75-.084 1.061-.254.311-.166.553-.4.729-.703.174-.303.262-.645.262-1.029 0-.602-.203-1.047-.609-1.338-.41-.293-1.049-.619-1.922-.984-.873-.361-1.533-.75-1.979-1.17-.447-.418-.668-1.027-.668-1.828 0-.543.141-1.027.42-1.455.281-.428.654-.76 1.123-.994a3.324 3.324 0 0 1 1.508-.352c.434 0 .818.07 1.158.211.34.139.637.336.895.59.256.252.475.545.656.875.184.334.338.697.465 1.09l-1.018.332zM151.561 179.014v9.734h4.568v.971h-5.693v-10.705h1.125zM157.941 189.719h-1.394v-1.614h1.394v1.614zM160.074 183.941h1.109c.91 0 1.652-.131 2.225-.389.574-.258.861-.773.861-1.551 0-.598-.154-1.045-.461-1.346a2.138 2.138 0 0 0-1.137-.568 9.263 9.263 0 0 0-1.629-.121h-.969v3.975h.001zm-1.127-4.927h2.018c.658 0 1.209.025 1.652.076a3.75 3.75 0 0 1 1.242.361c.455.203.824.527 1.109.979.283.447.428.92.428 1.418 0 .398-.074.787-.217 1.162a2.919 2.919 0 0 1-.629.994 2.523 2.523 0 0 1-.973.629c-.539.176-1.332.264-2.379.264h-1.125v4.822h-1.127v-10.705h.001zM164.467 189.719h-1.397v-1.614h1.397v1.614z"/></g></svg>