<svg xmlns="http://www.w3.org/2000/svg" width="2500" height="2500" viewBox="0 0 192.756 192.756"><g fill-rule="evenodd" clip-rule="evenodd"><path fill="#fff" d="M0 0h192.756v192.756H0V0z"/><path fill="#2360a5" d="M27.207 108.564V84.192H2.834v24.372h24.373z"/><path d="M11.362 100.209v-.99c-.219.807-1.09 1.148-2.095 1.148-.603 0-2.181-.406-2.181-3.16v-6.051c0-1.661 1.033-2.985 2.956-2.955 1.836.028 3.121.801 3.121 3.01l-.001.985-1.887-.007-.028-1.277c0-.543-.629-.99-1.205-.99-.562 0-1.091.46-1.091 1.004l-.014 6.57c0 .756.521 1.104.933 1.092.946-.029 1.434-.412 1.434-1.148l-.057-2.208h-.976l.007-1.457 2.885-.004.024 6.442-1.825-.004zM23.126 104.555v-2.668H6.915v2.668h16.211zM21.329 100.021v-8.282l-1.559 8.312h-1.35l-1.568-8.484c.038.635.098 8.455.098 8.455h-1.816V88.427l2.598.003s1.295 7.497 1.396 8.359l1.301-8.397 2.697.036-.038 11.594h-1.759v-.001z" fill="#fff"/><path d="M189.342 98.176c-1.053-1.793-6.186-1.936-6.932-3.029-.746-1.092-.418-3.112 2.184-2.91 2.604.203 1.473 3.439 1.473 3.439h3.604s.705-5.048-5.547-5.029-5.918 5.009-4.146 6.598c1.773 1.59 5.684 1.301 6.514 2.787.83 1.482-.922 3.322-3.027 2.621-2.105-.699-1.197-3.367-1.197-3.367h-3.852s-.426 5.4 5.912 5.133c6.334-.267 6.067-4.452 5.014-6.243zM155.879 102.387c-.654-.217-.727-.621-.727-.955v-8.704h2.656v-1.831h-2.701V88.15h-3.074v2.707l-2.08.02v1.876h1.982s-.02 8.083 0 8.594c.02.51.053 1.543.549 2.117.498.576 1.348.771 1.57.771h3.943v-1.855c.001.001-1.36.261-2.118.007zM144.074 90.628c-5.67.02-6.244 3.832-6.291 6.456-.045 2.621.105 7.812 6.338 7.564s5.604-6.82 5.604-7.193c0-.371.019-6.846-5.651-6.827zm-.431 12.184c-2.039.123-2.537-1.734-2.537-5.299 0-3.563.746-5.296 2.662-5.276s2.557.824 2.557 5.376c-.001 4.551-.641 5.075-2.682 5.199zM164.422 90.492c-5.672.02-6.246 3.833-6.293 6.455-.045 2.621.105 7.814 6.338 7.566 6.232-.25 5.604-6.822 5.604-7.193-.001-.373.019-6.847-5.649-6.828zm-.434 12.184c-2.039.123-2.537-1.734-2.537-5.297 0-3.564.746-5.297 2.662-5.278s2.557.824 2.557 5.375-.641 5.075-2.682 5.2zM136.24 89.288c.32-.321.699-.458.699-.458s-.719-.739-.719-.719-4.473.144-4.473.144l-3.943 11.509-4.082-11.47-4.74-.098s.373.333.59.765c.24.471.332.798.332 1.046s-.143 10.868-.143 10.868 0 1.152-.295 2.066a4.358 4.358 0 0 1-.838 1.459h4.414s-.574-.816-.822-1.66c-.289-.975-.25-1.988-.25-1.988v-8.848l3.977 12.288h2.604l4.021-11.935v9.481s-.008.76-.217 1.406a4.124 4.124 0 0 1-.588 1.131h5.113s-.438-.359-.725-1c-.281-.627-.412-1.537-.412-1.537V90.027c.001-.222.224-.465.497-.739zM111.58 101.797l.02-13.503h-3.918s.361.431.596.922c.184.386.229.654.248.856s-.02 11.607-.02 11.607-.033.916-.248 1.629a3.05 3.05 0 0 1-.576 1.033l4.885.02s-.432-.412-.666-1.02c-.262-.673-.321-1.544-.321-1.544zM105.844 101.93s0-6.031-.02-6.691c-.02-.661.328-4.793-5.609-4.61-5.939.184-4.952 5.212-4.952 5.212h3.487s-1.016-3.42 1.83-3.485 2.25 2.747 2.008 2.91c-.059.039-.752.327-1.771.569-1.236.294-2.924.596-4.094 1.275-1.74 1-2.171 2.721-1.263 5.068.909 2.348 4.277 2.66 6.259 1.896 1.248-.484 1.529-1.387 1.529-1.387l.02 1.713h3.217s-.201-.354-.346-.916c-.17-.666-.295-1.554-.295-1.554zm-3.321-.805c-.25.889-1.891 2.125-3.25 1.32-1.361-.805-1.133-2.25-.832-3.197.68-2.119 4.311-1.963 4.311-1.963s.223 2.231-.229 3.84z" fill="#2360a5"/><path d="M93.112 90.865c-.739.249-1.432 1.333-1.661 1.393s-.144-1.216-.144-1.216h-3.819s.478.693.7 1.164c.222.471.229 1.537.229 1.537v8.514s-.013.793-.242 1.367a2.11 2.11 0 0 1-.622.838l5.095.025s-.445-.393-.693-.975c-.294-.672-.541-1.867-.541-1.867s-.001-5.94.103-6.542c.104-.602.608-1.524 1.426-1.752.87-.242 1.995.661 1.995.661v-2.95c-.001-.001-.838-.524-1.826-.197zM176.084 90.774c-.738.248-1.432 1.334-1.66 1.393-.229.059-.145-1.216-.145-1.216h-3.818s.477.693.699 1.164.229 1.537.229 1.537v8.514s-.012.791-.242 1.367c-.201.521-.621.836-.621.836l5.096.027s-.381-.471-.693-.975c-.314-.506-.496-1.504-.496-1.504s-.047-6.305.057-6.907c.105-.601.609-1.523 1.426-1.752.871-.242 1.996.66 1.996.66V90.97c-.002 0-.84-.522-1.828-.196zM72.931 102.361v-7.757c0-1.132-.883-3.982-4.061-4.002-3.179-.02-3.179 1.177-3.466 1.223-.288.046-.307-.994-.307-.994h-3.773s.254.313.641 1.118c.386.804.268 1.438.268 1.438s.02 8.704 0 8.993c0 .031-.098.672-.294 1.131-.223.529-.641.908-.641.908l5.055-.02s-.379-.314-.582-.824a5.03 5.03 0 0 1-.282-1.34v-8.043c0-.249.595-1.524 2.243-1.563s2.027 1.217 2.047 2.04c.02.824 0 7.692 0 7.692s.006.686-.209 1.203c-.189.443-.615.732-.615.732h4.741s-.314-.354-.49-.812c-.203-.509-.275-1.123-.275-1.123zM55.104 90.628c-6.042 0-5.971 4.99-5.971 7.834 0 2.844.766 6.082 6.291 6.082 5.526 0 5.094-5.029 5.094-5.029h-3.571v2.289c0 .307-.353 1.072-2.164 1.072-1.812 0-2.132-1.053-2.132-1.281l.006-3.545h8.024c.001.001.465-7.422-5.577-7.422zm2.112 5.461l-4.683-.04s-.451-3.733 2.354-3.713 2.329 3.753 2.329 3.753zM80.839 90.644c-6.042 0-5.971 4.989-5.971 7.834 0 2.844.765 6.08 6.291 6.08s5.095-5.027 5.095-5.027h-3.571v2.289c0 .307-.354 1.072-2.165 1.072-1.812 0-2.132-1.053-2.132-1.283l.007-3.543h8.024s.464-7.422-5.578-7.422zm2.112 5.46l-4.682-.039s-.451-3.734 2.354-3.714c2.805.019 2.328 3.753 2.328 3.753zM40.266 97.246h3.695s.039 2.701 0 3.008c-.039.309-.7 2.525-3.485 2.467-2.786-.059-3.512-1.949-3.473-5.971.039-4.022-.118-6.841 3.551-7.011 3.668-.169 3.074 3.754 3.074 3.754h3.629s.19-5.649-6.925-5.277c-7.115.373-6.625 4.571-6.625 9.769 0 5.199 3.126 6.494 6.487 6.572 3.361.08 4.754-1.947 4.754-1.947v1.83l2.472-.02v-9.194h-7.154v2.02z" fill="#2360a5"/></g></svg>