<?xml version="1.0" encoding="utf-8"?>
<!-- Generator: Adobe Illustrator 23.0.3, SVG Export Plug-In . SVG Version: 6.00 Build 0)  -->
<svg version="1.2" baseProfile="tiny" id="Layer_1" xmlns="http://www.w3.org/2000/svg" xmlns:xlink="http://www.w3.org/1999/xlink"
	 x="0px" y="0px" viewBox="0 0 192.3 27.8" xml:space="preserve">
<path fill="#ED1D24" d="M116.9,8.2L116.9,8.2L116.9,8.2c-1-0.7-2.5-1-4-1c-3.3,0-5.7,1.6-7.2,3.9c-1.6,2.3-2.3,5.3-2.3,7.9
	c0,1.9,0.3,3.7,1.5,5.3c0.6,0.8,2,2.7,6.5,2.7c3.1,0,4.6-0.8,5.4-1.3l0.1-0.2c0.2-0.7,0.7-3.8,0.9-4.6l-0.2-0.1
	c-1.6,1.3-3.3,2.2-5.3,2.2c-1.3,0-2.3-0.3-3-0.9c-0.7-0.6-1-1.5-1-2.6c0-0.4,0-0.8,0.1-1.2l0-0.1l0.1,0c3.1-0.1,4.6-0.1,7.2-0.1
	c0.8,0,1.8,0,2.9,0l0.2-0.1c0.3-1.2,0.5-2.5,0.5-4.2C119.4,12.3,119.2,9.7,116.9,8.2 M114.9,14.7L114.9,14.7l-3,0.1l-3,0l0-0.1l0,0
	c0.1-0.2,0.1-0.4,0.2-0.7c0.2-0.7,0.5-1.4,1-2c0.1-0.1,0.2-0.2,0.3-0.3c0.9-1,1.8-1.2,2.4-1.2c0.8,0,1.4,0.3,1.8,0.8
	c0.1,0.1,0.1,0.2,0.2,0.3c0.2,0.3,0.3,0.7,0.3,1c0,0.1,0,0.3,0,0.4C115.1,13.6,115,14.1,114.9,14.7 M103.3,11.3l-0.2,0.2l-3-0.1
	l-1.4,6.4c-0.2,0.8-0.6,2.8-0.6,3.5c0,0.6,0.2,1,0.5,1.3c0.3,0.2,0.7,0.3,1.1,0.3c0.8,0,1.1-0.2,1.7-0.4l0.1,0.1l-0.7,3.7l-0.2,0.2
	c-1,0.2-1.8,0.4-2.8,0.4c-2.8,0-4.7-0.9-4.7-4.1c0-1.5,0.6-4.2,1.1-6.3l1.1-5.1l-2.3,0.1l-0.1-0.2l0.7-3.6l0.2-0.1h2.4l0.9-4.7
	L97,2.6c2.4-0.6,3-0.9,5.2-1.6l0.1,0.1l-0.7,3.1l-0.7,3.4l3-0.1l0.1,0.2L103.3,11.3z M139.7,5.2l-0.2,0.2l-7.8,0l-1.3,6.5l6.8-0.2
	l0.1,0.2c-0.6,1.9-0.7,2.4-1.1,4l-0.2,0.2l-6.5,0l-0.9,4.5l-1.1,5.9l-0.1,0.1l-5.6,0.1l-0.1-0.1l1-5l1.5-7c1.1-5.5,1.4-7.2,2.5-13.2
	l0.2-0.2h8.2l5.2-0.1l0.1,0.1L139.7,5.2z M150.7,8.4c-1.1-0.8-2.8-1.2-5.2-1.2c-1.2,0-2.4,0.1-3.5,0.3c-1.1,0.2-1.7,0.4-2.3,0.5
	l-0.2,0.2l-0.8,3.9l0.2,0.1c0.5-0.2,1.2-0.5,2.2-0.8c1-0.3,1.9-0.5,2.7-0.5c1.2,0,2.1,0.2,2.7,0.5c0.6,0.3,1.1,1.1,1.1,1.9
	c0,0.2,0,0.4,0,0.5c0,0.2-0.1,0.3-0.1,0.3l0,0.1c0,0-0.4,0-0.8,0.1c-0.3,0-0.6,0.1-1,0.1c-0.7,0.1-1.4,0.2-2.1,0.3
	c-1.6,0.3-6,0.9-7.3,3.9c-1.4,2.4-1.2,5.6,0.2,7.2c0.5,0.6,1.2,1.1,2.2,1.3l0,0c0,0,0.2,0,0.2,0c3.8,0.6,6.6-2.7,6.6-2.7l-0.4,2
	l0.2,0.1l4.3-0.1l0.2-0.2l2.5-12.7c0.1-0.3,0.1-0.6,0.1-0.9c0-0.4,0-0.7,0-0.9C152.5,10.3,151.8,9.1,150.7,8.4 M146.3,21
	c0,0-1,1.6-2.5,2.2c-1.5,0.6-2.6,0.1-3-0.5c-0.3-0.4-1-1.9,0.3-3.5c1.4-1.6,5.8-1.7,5.8-1.7L146.3,21z M167.1,7l-1.1,5.4l-0.2,0.2
	c-0.3-0.1-0.7-0.1-1.1-0.1c-1.4,0-3.4,0.5-5,2.5l0,0l-2.2,11.3l-0.2,0.1l-4.7,0.1l-0.1-0.1l3.7-19l0.2-0.2l4.7-0.5l0.2,0.2l-0.5,2.8
	l0.2-0.2c1-0.9,1.8-1.5,2.8-2c1-0.6,1.9-0.8,2.9-0.8c0.1,0,0.2,0,0.3,0L167.1,7z M192.3,11.7c0,1.1-0.3,2.3-0.5,3.5l-2.2,11.2
	l-0.2,0.1l-4.9,0.2l-0.1-0.2c0,0,2.5-12.3,2.5-12.9c0-0.6-0.3-2.1-1.9-2.1c-1.2,0-2.5,1.2-2.5,1.2l-2.7,13.6l-0.2,0.1l-2.1,0.1
	l-1.9,0.1l-0.9,0l-0.1-0.1l-0.1-0.1c0,0,0.4-1.9,0.9-4.2h0c0.7-3.6,1.7-8.4,1.7-8.7c0-0.6-0.3-2.1-1.9-2.1c-1.2,0-2.5,1.2-2.5,1.2
	l-2.7,13.6l-0.2,0.1l-0.8,0l-4.2,0.1l-0.1-0.2l3.7-19l0.2-0.2l4.9-0.5l0.2,0.2l-0.5,2.7c0,0,2.4-2.6,5.4-2.7
	c2.8-0.1,3.4,2.7,3.4,2.7s2.8-2.7,5.8-2.7C189.5,7.1,192.3,7.8,192.3,11.7 M89.4,8.4c-1.1-0.8-2.8-1.2-5.2-1.2
	c-1.2,0-2.4,0.1-3.5,0.3c-1.1,0.2-1.7,0.4-2.3,0.5l-0.2,0.2l-0.8,3.9l0.2,0.1c0.5-0.2,1.2-0.5,2.2-0.8c1-0.3,1.9-0.5,2.7-0.5
	c1.2,0,2.1,0.2,2.7,0.5c0.6,0.3,1.1,1.1,1.1,1.9c0,0.2,0,0.4,0,0.5c0,0.2-0.1,0.3-0.1,0.3l0,0.1c0,0-0.4,0-0.8,0.1
	c-0.3,0-0.6,0.1-1,0.1c-0.7,0.1-1.4,0.2-2.1,0.3c-1.6,0.3-6,0.9-7.3,3.9c-1.4,2.4-1.2,5.6,0.2,7.2c0.5,0.6,1.2,1.1,2.2,1.3l0,0
	c0,0,0.2,0,0.2,0c3.8,0.6,6.6-2.7,6.6-2.7l-0.4,2l0.2,0.1l4.3-0.1l0.2-0.2l2.5-12.7c0.1-0.3,0.1-0.6,0.1-0.9c0-0.4,0-0.7,0-0.9
	C91.3,10.3,90.5,9.1,89.4,8.4 M85,21c0,0-1,1.6-2.5,2.2c-1.5,0.6-2.5,0.1-3-0.5c-0.3-0.4-1-1.9,0.3-3.5c1.3-1.6,5.8-1.7,5.8-1.7
	L85,21z M74.7,11.3l-0.2,0.2l-3-0.1l-1.4,6.4c-0.2,0.8-0.6,2.8-0.6,3.5c0,0.6,0.2,1,0.5,1.3c0.3,0.2,0.7,0.3,1.1,0.3
	c0.8,0,1.1-0.2,1.7-0.4l0.1,0.1l-0.7,3.7l-0.2,0.2c-1,0.2-1.8,0.4-2.8,0.4c-2.7,0-4.7-0.9-4.7-4.1c0-1.5,0.6-4.2,1.1-6.3l1.1-5.1
	l-2.3,0.1l-0.1-0.2l0.7-3.6l0.2-0.1h2.4l0.9-4.7l0.2-0.2c2.4-0.6,3-0.9,5.2-1.6l0.1,0.1L73,4.2l-0.7,3.4l3-0.1l0.1,0.2L74.7,11.3z
	 M63.6,2.5l-0.9,4.6l-0.2,0.1c-0.4-0.5-0.6-0.7-1.1-1.1c-1.1-0.8-2.4-1.3-3.8-1.3c-1,0-1.9,0.3-2.5,0.9c-0.6,0.5-1,1.3-1,2.2
	c0,1.6,1.1,2.4,3.1,3.6l0.8,0.4c1.7,1.1,4.2,2.8,4.2,6.6c0,4.3-2.8,8.6-9.4,8.7c-1.6,0-3.2-0.3-4.7-0.9c-1-0.4-1.5-0.7-2.2-1.2
	L46,24.8l0.9-4.5l0.2-0.1c0.4,0.5,0.9,0.9,1.6,1.4c1.6,1.1,3.1,1.2,3.8,1.2c2.3,0,4.2-1.3,4.2-3.4c0-1.9-1.5-2.8-3-3.7L52.6,15
	c-1.7-1.1-4-2.6-4-6.3c0-1.4,0.4-3.5,1.7-5.2c1.7-2.2,4.3-3,6.9-3c3.4,0,5.4,1.2,6.3,1.8L63.6,2.5z M15.7,10.7
	C17,11.5,18.9,12,21,12c2.1,0,4-0.5,5.4-1.4c1.4-0.8,2.2-1.9,2.2-3.1c0-1.2-0.8-2.3-2.2-3.1C25,3.6,23.1,3.1,21,3.1
	c-2.1,0-4,0.5-5.4,1.3c-1.4,0.8-2.1,1.9-2.1,3.1C13.5,8.7,14.3,9.8,15.7,10.7 M16,17.1c-1.4-0.8-3.3-1.3-5.4-1.3
	c-2.1,0-4,0.5-5.4,1.3c-1.4,0.8-2.1,1.9-2.1,3.1c0,1.2,0.8,2.3,2.1,3.1c1.3,0.8,3.2,1.4,5.4,1.4c2.1,0,4-0.5,5.4-1.4
	c1.4-0.8,2.2-1.9,2.2-3.1C18.2,19,17.4,17.9,16,17.1 M36.8,17.1c-1.4-0.8-3.3-1.3-5.4-1.3c-2.1,0-4,0.5-5.4,1.3
	c-1.4,0.8-2.1,1.9-2.1,3.1c0,1.2,0.8,2.3,2.1,3.1c1.3,0.8,3.2,1.4,5.4,1.4c2.1,0,4-0.5,5.4-1.4c1.4-0.8,2.2-1.9,2.2-3.1
	C38.9,19,38.1,17.9,36.8,17.1 M31.4,12.6c-1,0-1.9,0.1-2.8,0.3c1.9-1.4,3.1-3.3,3.1-5.4C31.7,3.3,26.9,0,21,0
	c-5.9,0-10.6,3.3-10.6,7.5c0,2.1,1.2,4,3.1,5.4c-0.9-0.2-1.8-0.3-2.8-0.3C4.7,12.6,0,16,0,20.2c0,4.2,4.7,7.6,10.6,7.6
	c5,0,9.3-2.5,10.4-5.8c1.1,3.3,5.3,5.8,10.3,5.8c5.9,0,10.7-3.4,10.7-7.6C42.1,16,37.3,12.6,31.4,12.6 M12.3,7.5
	c0-1.9,1.4-3.2,2.3-3.8c1.7-1.2,4-1.8,6.4-1.8c2.5,0,4.8,0.6,6.5,1.8c0.8,0.6,2.3,1.9,2.3,3.8c0,3.2-4.1,5.7-8.8,5.7
	c-2.4,0-4.7-0.7-6.4-1.9C13.1,10.3,12.3,8.9,12.3,7.5 M10.6,25.8c-2.5,0-4.7-0.7-6.4-1.9c-1.5-1-2.3-2.4-2.3-3.8
	c0-1.9,1.4-3.2,2.3-3.8c1.7-1.2,4-1.8,6.4-1.8c2.5,0,4.8,0.7,6.5,1.8c0.9,0.6,2.3,1.9,2.3,3.8C19.4,23.3,15.3,25.8,10.6,25.8
	 M21,18.4c-0.5-1.3-1.4-2.5-2.7-3.5c0.9,0.2,1.8,0.2,2.7,0.2c1,0,1.9-0.1,2.8-0.3C22.4,15.8,21.5,17,21,18.4 M31.3,25.8
	c-2.4,0-4.7-0.7-6.4-1.9c-1.5-1-2.3-2.4-2.3-3.8c0-1.9,1.4-3.2,2.3-3.8c1.7-1.2,4-1.8,6.4-1.8c2.5,0,4.8,0.7,6.5,1.8
	c0.8,0.6,2.3,1.9,2.3,3.8C40.1,23.3,36.1,25.8,31.3,25.8"/>
</svg>
