<svg xmlns="http://www.w3.org/2000/svg" width="2500" height="2500" viewBox="0 0 192.756 192.756"><g fill-rule="evenodd" clip-rule="evenodd"><path fill="#fff" d="M0 0h192.756v192.756H0V0z"/><path d="M90.048 71.958V59.179c.031-2.146-1.418-3.252-3.304-3.52.716-.582 3.713-1.85 4.598-1.83 2.233 0 4.24 2.075 4.24 4.309v21.55l-19.819-6.202c-1.498-.472-4.779-1.844-7.512.29.375-3.454 4.615-7.021 8.201-5.879l13.596 4.061zm-4.626 12.667l-12.159-3.931c-2.031-.689-3.53.351-4.365 2.061-.334-.86-.618-4.101-.329-4.937.687-2.126 3.279-3.396 5.404-2.71l20.505 6.625-11.991 16.955c-.912 1.279-3.228 3.98-2.038 7.234-3.17-1.416-5.262-6.547-3.072-9.609l8.045-11.688zm10.826 8.241l-7.499 10.347c-1.284 1.719-.76 3.467.609 4.787-.921.053-4.091-.68-4.797-1.213-1.809-1.311-2.215-4.17-.904-5.979L96.301 83.36l12.41 16.647c.936 1.264 2.787 4.299 6.25 4.176-2.328 2.576-7.854 2.979-10.088-.053l-8.625-11.264zm10.953-7.794l7.52 10.332c1.236 1.754 3.061 1.795 4.74.903-.234.893-1.912 3.68-2.637 4.186-1.807 1.314-4.65.816-5.965-.99l-12.682-17.42 19.67-6.652c1.49-.5 4.951-1.321 5.904-4.651 1.73 3.01.402 8.39-3.17 9.577l-13.38 4.715zm-3.699-12.894l12.152-3.956c2.049-.633 2.654-2.354 2.324-4.229.775.5 2.908 2.958 3.164 3.804.691 2.123-.662 4.674-2.785 5.365l-20.49 6.67-.24-20.763c-.014-1.573.275-5.117-2.598-7.054 3.396-.713 8.104 2.213 8.127 5.977l.346 14.186z" fill="#5e698b"/><path d="M9.144 129.48a32.42 32.42 0 0 0-.618-1.688l-2.41-6.021c-.345-.871-.546-1.346-.606-1.426-.058-.082-.25-.123-.579-.123h-.275v-.422c.705.029 1.305.045 1.796.045.521 0 1.146-.016 1.872-.045v.482h-.666c-.229 0-.376.021-.443.064-.069.043-.101.109-.101.199 0 .057.009.121.032.195l.875 2.309 1.817 4.635 1.771-4.422c.595-1.502.893-2.381.893-2.637 0-.207-.122-.314-.37-.324l-.276-.02-.579-.061v-.422c.597.029 1.089.045 1.475.045.401 0 .909-.016 1.521-.045v.422h-.269c-.216 0-.373.051-.468.152-.097.1-.271.459-.521 1.072l-2.268 5.537c-.427 1.043-.73 1.875-.909 2.496h-.694v.003zM57.16 124.805v1.648l.007.949c0 .594.007 1.025.021 1.301.655.047 1.357.072 2.106.072.503 0 .923-.021 1.265-.068.218-.025.453-.086.698-.174.113-.395.228-.887.345-1.48h.45c-.122.982-.182 1.639-.182 1.965l.014.303c-.517.051-1.024.074-1.521.074l-1.057-.021a117.424 117.424 0 0 0-2.57-.045c-.526 0-1.224.016-2.095.045v-.422h.209c.391 0 .636-.039.738-.115.101-.076.167-.256.202-.537.035-.283.051-.908.051-1.873v-3.691c0-.607-.014-1.104-.043-1.49-.03-.385-.062-.615-.095-.688a.421.421 0 0 0-.145-.174c-.064-.037-.257-.074-.579-.105l-.519-.055v-.418h.728l.712.021c.4.014.703.02.91.02l2.584-.033 1.224-.008c.418-.002.838.014 1.266.055-.17.529-.267 1.219-.282 2.064h-.459c0-.492-.023-.902-.074-1.23-.528-.197-1.178-.297-1.95-.297-.616 0-1.259.029-1.932.082.004.422 0 .844-.014 1.266l-.014 1.035v1.367c.444.027.836.041 1.179.041 1.068 0 1.672-.037 1.812-.113.143-.074.213-.303.213-.689v-.436h.458a34.677 34.677 0 0 0-.048 1.621c0 .426.016.928.048 1.508h-.458v-.391c0-.43-.085-.693-.253-.791-.167-.096-.762-.145-1.78-.145-.375-.001-.766.017-1.17.052zM113.449 122.229l-.055-1.197a4.688 4.688 0 0 0-1.254-.592 4.76 4.76 0 0 0-1.369-.195c-1.213 0-2.182.367-2.912 1.102-.729.738-1.094 1.721-1.094 2.957 0 .863.186 1.635.557 2.312a4.081 4.081 0 0 0 1.578 1.609c.682.393 1.4.59 2.16.59.6 0 1.195-.068 1.783-.205.438-.104.881-.32 1.324-.648l.143.135c-.094.207-.184.416-.264.625a7.695 7.695 0 0 1-1.586.59 6.652 6.652 0 0 1-1.604.197c-1.104 0-2.072-.213-2.908-.637-.838-.428-1.48-1.016-1.93-1.768-.449-.75-.674-1.6-.674-2.547 0-.945.229-1.793.68-2.539.453-.748 1.094-1.326 1.924-1.738.826-.41 1.844-.615 3.049-.615.635 0 1.375.104 2.221.311.424.1.766.172 1.029.221-.201.48-.316 1.158-.348 2.033h-.45v-.001zM18.433 126.781h-3.111l-.365.867c-.241.572-.362.926-.362 1.055 0 .082.023.141.068.178.044.035.158.064.342.086l.516.059v.338a23.471 23.471 0 0 0-2.524 0v-.338l.162-.004c.252-.008.414-.033.487-.078.074-.047.153-.156.235-.332.253-.518.514-1.076.781-1.674l1.479-3.354c.396-.889.666-1.537.809-1.939h.365l2.723 6.338c.184.43.305.689.368.777.06.088.13.15.209.188.079.039.255.064.533.078v.338a27.184 27.184 0 0 0-1.336-.035c-.395 0-.92.012-1.576.035v-.338l.532-.033c.189-.012.304-.033.338-.059a.174.174 0 0 0 .081-.15c0-.064-.053-.232-.16-.506l-.594-1.497zm-2.912-.441h2.714l-1.356-3.242-1.358 3.242zM23.753 128.836c.351.02.694.027 1.027.027.676 0 1.204-.018 1.583-.053.265-.029.541-.08.824-.156l.323-1.266h.349c-.09.678-.16 1.312-.21 1.9-.323.055-.764.08-1.324.08l-2.562-.041c-.345 0-.882.02-1.609.059v-.285c.287-.125.456-.262.509-.404.052-.145.077-.711.077-1.705v-2.963c0-1.076-.025-1.676-.077-1.799-.053-.123-.198-.188-.439-.188h-.588v-.336c.854.023 1.422.035 1.701.035.374 0 .88-.012 1.518-.035v.336h-.667c-.189 0-.311.057-.36.164-.051.111-.075.566-.075 1.365v3.43l.016 1.52-.016.315zM30.541 125.709v1.32l.006.758c0 .475.005.82.016 1.041a23.91 23.91 0 0 0 1.685.059c.403 0 .738-.02 1.012-.055.175-.021.362-.068.559-.141.09-.316.182-.709.275-1.184h.36c-.097.785-.145 1.311-.145 1.572l.011.242c-.413.039-.819.059-1.216.059l-.845-.018a93.767 93.767 0 0 0-2.056-.035c-.421 0-.979.012-1.676.035v-.338h.167c.312 0 .509-.031.59-.092.081-.061.134-.203.162-.43.027-.227.04-.725.04-1.498v-2.953c0-.484-.011-.883-.035-1.191s-.05-.492-.075-.551a.338.338 0 0 0-.116-.139c-.052-.031-.206-.061-.463-.084l-.415-.045v-.334h.582l.57.018c.32.01.562.016.728.016l2.067-.027.979-.006c.334 0 .671.012 1.012.045-.136.422-.213.975-.226 1.652h-.367c0-.396-.019-.723-.059-.986-.422-.158-.943-.236-1.56-.236-.492 0-1.007.021-1.545.064.004.338 0 .676-.011 1.012l-.011.83v1.092c.354.023.669.033.942.033.855 0 1.338-.029 1.45-.09.114-.059.171-.242.171-.551v-.35h.365c-.025.543-.038.975-.038 1.297 0 .34.013.742.038 1.205h-.365v-.311c0-.344-.068-.557-.202-.633-.134-.078-.61-.115-1.424-.115-.302.002-.614.016-.937.043zM39.079 125.479c.351.506.787 1.094 1.306 1.766l1.035 1.342c.184.229.305.359.366.393a.416.416 0 0 0 .189.047h.14v.338a10.355 10.355 0 0 0-.781-.035c-.204 0-.419.012-.645.035l-1.907-2.572a20.396 20.396 0 0 0-1.142-1.389l.056-.182c.207.016.362.025.463.025.599 0 1.067-.154 1.407-.463.338-.309.509-.721.509-1.236 0-.463-.145-.824-.432-1.086-.287-.26-.702-.389-1.244-.389-.376 0-.755.068-1.135.209-.042.57-.064 1.182-.064 1.83v2.6c0 1.268.031 1.969.092 2.107.061.137.257.207.591.207h.421v.338a39.967 39.967 0 0 0-1.481-.035c-.309 0-.867.012-1.674.035v-.338h.404c.309 0 .49-.068.547-.201.059-.135.086-.842.086-2.125v-2.588c0-1.111-.033-1.734-.099-1.867-.067-.135-.284-.201-.649-.201h-.29v-.342c.667.027 1.176.041 1.529.041.237 0 .577-.01 1.023-.027.516-.016.887-.025 1.113-.025.621 0 1.091.064 1.413.197.321.131.566.318.731.566.167.248.252.545.252.889 0 .506-.182.953-.548 1.34-.362.387-.891.651-1.582.796zM42.248 125.533c0-1.182.38-2.133 1.141-2.854.76-.723 1.775-1.082 3.041-1.082 1.242 0 2.216.334 2.919 1.004.706.67 1.058 1.557 1.058 2.666 0 1.195-.41 2.195-1.228 3-.817.803-1.85 1.205-3.094 1.205-.779 0-1.45-.158-2.014-.475a3.383 3.383 0 0 1-1.336-1.383c-.323-.606-.487-1.3-.487-2.081zm1.091-.443c0 .812.14 1.518.417 2.119.279.602.65 1.051 1.117 1.352s1 .449 1.601.449c.555 0 1.042-.127 1.457-.383.417-.256.744-.635.982-1.141.239-.506.358-1.121.358-1.846 0-.762-.132-1.412-.395-1.953-.265-.539-.627-.945-1.086-1.217-.459-.273-1.003-.41-1.63-.41-.575 0-1.069.119-1.486.359a2.491 2.491 0 0 0-.979 1.059c-.237.465-.356 1.002-.356 1.612zM64.3 122.922v3.719c0 .848.017 1.438.048 1.771.026.256.068.41.126.465.059.057.232.098.515.121l.344.027v.338a18.258 18.258 0 0 0-1.06-.035c-.219 0-.721.012-1.507.035v-.338h.388c.233 0 .386-.033.458-.096.072-.066.116-.191.134-.383.041-.396.059-.932.059-1.609v-2.676c0-.502-.005-1-.016-1.49-.006-.209-.035-.352-.083-.428a.671.671 0 0 0-.213-.207.714.714 0 0 0-.394-.094h-.333v-.336c.456.023.803.035 1.043.035.259 0 .542-.012.851-.035.354.432.691.855 1.003 1.266.313.41.641.824.977 1.24l1.841 2.262a38.852 38.852 0 0 0 1.437 1.689v-3.455c0-1.447-.026-2.236-.077-2.371-.052-.135-.259-.221-.621-.256l-.404-.039v-.336c.577.023 1.025.035 1.345.035.334 0 .764-.012 1.292-.035v.336h-.414c-.334 0-.525.113-.577.336-.031.146-.048.934-.048 2.357v2.426c0 .654.029 1.436.086 2.344-.489-.076-.772-.131-.851-.166a.662.662 0 0 1-.226-.168 38.394 38.394 0 0 1-1.255-1.471l-3.868-4.778zM74.128 125.709v1.32l.006.758c0 .475.005.82.017 1.041a23.91 23.91 0 0 0 1.685.059c.402 0 .738-.02 1.012-.055.174-.021.362-.068.559-.141.09-.316.182-.709.275-1.184h.36c-.098.785-.146 1.311-.146 1.572l.011.242c-.414.039-.82.059-1.216.059l-.845-.018a93.767 93.767 0 0 0-2.056-.035c-.421 0-.979.012-1.676.035v-.338h.167c.312 0 .509-.031.59-.092.081-.061.134-.203.162-.43s.041-.725.041-1.498v-2.953c0-.484-.011-.883-.035-1.191s-.049-.492-.075-.551a.346.346 0 0 0-.116-.139c-.052-.031-.206-.061-.463-.084l-.416-.045v-.334h.583l.57.018c.32.01.562.016.728.016l2.067-.027.979-.006c.334 0 .671.012 1.012.045-.136.422-.213.975-.226 1.652h-.367c0-.396-.019-.723-.059-.986-.423-.158-.943-.236-1.56-.236-.493 0-1.007.021-1.545.064.004.338 0 .676-.011 1.012l-.011.83v1.092c.355.023.669.033.943.033.854 0 1.338-.029 1.45-.09.114-.059.171-.242.171-.551v-.35h.366c-.026.543-.039.975-.039 1.297 0 .34.013.742.039 1.205h-.366v-.311c0-.344-.068-.557-.202-.633-.134-.078-.61-.115-1.424-.115-.302.002-.615.016-.939.043zM82.667 125.479c.351.506.786 1.094 1.306 1.766l1.035 1.342c.184.229.305.359.366.393a.416.416 0 0 0 .189.047h.14v.338a10.355 10.355 0 0 0-.781-.035c-.204 0-.419.012-.645.035l-1.907-2.572a20.378 20.378 0 0 0-1.141-1.389l.055-.182c.208.016.362.025.463.025.599 0 1.067-.154 1.408-.463.338-.309.508-.721.508-1.236 0-.463-.145-.824-.431-1.086-.287-.26-.702-.389-1.244-.389-.376 0-.755.068-1.135.209-.042.57-.064 1.182-.064 1.83v2.6c0 1.268.031 1.969.092 2.107.061.137.257.207.592.207h.421v.338a39.92 39.92 0 0 0-1.481-.035c-.309 0-.868.012-1.674.035v-.338h.404c.309 0 .491-.068.547-.201.059-.135.087-.842.087-2.125v-2.588c0-1.111-.033-1.734-.099-1.867-.066-.135-.283-.201-.649-.201h-.291v-.342c.667.027 1.176.041 1.529.041.237 0 .577-.01 1.023-.027a41.95 41.95 0 0 1 1.114-.025c.621 0 1.091.064 1.413.197.322.131.566.318.731.566.168.248.252.545.252.889 0 .506-.182.953-.547 1.34-.366.387-.895.651-1.586.796zM93.285 126.818a5.33 5.33 0 0 0-.081.922c0 .328.028.701.081 1.113-.476.188-1.016.336-1.617.449s-1.176.17-1.726.17c-.847 0-1.591-.166-2.23-.498a3.557 3.557 0 0 1-1.478-1.383c-.346-.59-.519-1.262-.519-2.012 0-.773.186-1.463.555-2.07a3.77 3.77 0 0 1 1.545-1.408c.66-.336 1.495-.504 2.508-.504.414 0 .794.027 1.141.08.349.055.803.162 1.361.324l.458.123c-.095.381-.173.912-.231 1.592h-.332v-.354c0-.354-.029-.559-.086-.619-.108-.115-.393-.258-.856-.428-.463-.172-.992-.256-1.587-.256-1.055 0-1.863.283-2.424.852-.61.617-.915 1.432-.915 2.447 0 .977.275 1.799.825 2.467.645.789 1.527 1.184 2.643 1.184.582 0 1.21-.127 1.888-.383.022-.301.033-.623.033-.963 0-.443-.007-.695-.022-.762-.013-.066-.041-.109-.077-.129-.039-.02-.227-.045-.562-.074l-.636-.053v-.344c.822.035 1.431.055 1.83.055.346 0 .642-.02.887-.055v.268l-.376.249zM97.996 125.576c.219-.332.564-.904 1.037-1.725l1.234-2.143h.834v.137c-.438.49-.975 1.232-1.611 2.223-.633.99-1.016 1.654-1.141 1.992-.041.117-.064.42-.064.91 0 .648.018 1.164.049 1.545.021.203.059.326.109.367.055.043.238.076.553.105l.408.043v.332a42.385 42.385 0 0 0-1.465-.035l-1.732.035v-.332h.458c.305 0 .489-.062.549-.189.061-.125.092-.691.092-1.699 0-.295-.01-.615-.027-.965-.463-.85-.889-1.586-1.281-2.207s-.723-1.074-.99-1.361c-.147-.158-.276-.262-.386-.312-.108-.051-.292-.074-.551-.074v-.334l.867-.174.425-.084c.166.061.297.137.398.23.181.168.454.555.823 1.156.284.463.754 1.317 1.412 2.559zM114.818 125.533c0-1.182.381-2.133 1.143-2.854.76-.723 1.773-1.082 3.041-1.082 1.242 0 2.215.334 2.918 1.004.707.67 1.059 1.557 1.059 2.666 0 1.195-.41 2.195-1.227 3-.818.803-1.852 1.205-3.094 1.205-.779 0-1.451-.158-2.014-.475a3.376 3.376 0 0 1-1.336-1.383c-.326-.606-.49-1.3-.49-2.081zm1.092-.443c0 .812.141 1.518.418 2.119.279.602.65 1.051 1.117 1.352s.998.449 1.6.449c.555 0 1.041-.127 1.457-.383.418-.256.744-.635.982-1.141.24-.506.359-1.121.359-1.846 0-.762-.133-1.412-.395-1.953-.266-.539-.627-.945-1.086-1.217-.461-.273-1.004-.41-1.631-.41-.574 0-1.068.119-1.486.359a2.503 2.503 0 0 0-.979 1.059c-.237.465-.356 1.002-.356 1.612zM127.479 125.479c.352.506.787 1.094 1.307 1.766l1.035 1.342c.184.229.305.359.365.393a.416.416 0 0 0 .189.047h.141v.338a10.422 10.422 0 0 0-.781-.035c-.205 0-.42.012-.645.035l-1.908-2.572a20.378 20.378 0 0 0-1.141-1.389l.055-.182c.207.016.361.025.463.025.6 0 1.068-.154 1.408-.463.338-.309.508-.721.508-1.236 0-.463-.145-.824-.432-1.086-.287-.26-.701-.389-1.244-.389-.377 0-.754.068-1.135.209-.043.57-.064 1.182-.064 1.83v2.6c0 1.268.031 1.969.092 2.107.061.137.258.207.592.207h.422v.338a40.062 40.062 0 0 0-1.482-.035c-.309 0-.867.012-1.674.035v-.338h.404c.309 0 .49-.068.547-.201.061-.135.088-.842.088-2.125v-2.588c0-1.111-.033-1.734-.1-1.867-.066-.135-.283-.201-.648-.201h-.291v-.342c.668.027 1.176.041 1.529.041.236 0 .576-.01 1.023-.027.516-.016.887-.025 1.113-.025.621 0 1.092.064 1.412.197.322.131.566.318.732.566s.252.545.252.889c0 .506-.184.953-.549 1.34-.363.387-.892.651-1.583.796zM132.99 122.293a34.212 34.212 0 0 0-.037 1.65v3.074c0 1.08.031 1.686.096 1.814s.275.193.637.193h.371v.338a44.324 44.324 0 0 0-1.504-.035 73 73 0 0 0-1.715.035v-.338h.484c.227 0 .371-.027.436-.082.064-.057.105-.17.123-.34.018-.172.039-.693.059-1.564v-2.875l-.014-1.113c-.008-.463-.059-.746-.15-.85-.092-.105-.314-.158-.67-.158h-.268v-.336c.447.016 1.018.025 1.707.025.404 0 .854-.012 1.35-.031.326-.016.574-.023.742-.023.869 0 1.502.158 1.895.475.391.316.588.742.588 1.281 0 .391-.113.766-.34 1.127s-.545.65-.961.869c-.414.219-.855.33-1.326.33-.215 0-.486-.035-.807-.104l-.109-.41c.316.084.58.125.793.125.494 0 .887-.15 1.178-.449.291-.301.438-.711.438-1.23 0-.502-.156-.895-.467-1.178-.311-.281-.771-.422-1.387-.422-.349.001-.73.069-1.142.202zM137.506 125.533c0-1.182.381-2.133 1.143-2.854.76-.723 1.773-1.082 3.041-1.082 1.242 0 2.215.334 2.92 1.004s1.057 1.557 1.057 2.666c0 1.195-.41 2.195-1.227 3-.818.803-1.852 1.205-3.094 1.205-.779 0-1.451-.158-2.014-.475a3.376 3.376 0 0 1-1.336-1.383c-.326-.606-.49-1.3-.49-2.081zm1.092-.443c0 .812.141 1.518.418 2.119.279.602.65 1.051 1.117 1.352s.998.449 1.6.449c.555 0 1.041-.127 1.457-.383.418-.256.744-.635.982-1.141.24-.506.359-1.121.359-1.846 0-.762-.133-1.412-.395-1.953-.266-.539-.627-.945-1.086-1.217-.461-.273-1.004-.41-1.631-.41-.574 0-1.068.119-1.486.359a2.503 2.503 0 0 0-.979 1.059c-.237.465-.356 1.002-.356 1.612zM150.166 125.479c.352.506.787 1.094 1.307 1.766l1.035 1.342c.184.229.305.359.365.393a.416.416 0 0 0 .189.047h.141v.338a10.422 10.422 0 0 0-.781-.035c-.205 0-.42.012-.645.035l-1.908-2.572a20.085 20.085 0 0 0-1.141-1.389l.055-.182c.207.016.361.025.463.025.6 0 1.068-.154 1.408-.463.338-.309.508-.721.508-1.236 0-.463-.145-.824-.432-1.086-.285-.26-.701-.389-1.244-.389-.375 0-.754.068-1.135.209-.043.57-.064 1.182-.064 1.83v2.6c0 1.268.031 1.969.092 2.107.061.137.258.207.592.207h.422v.338a39.966 39.966 0 0 0-1.482-.035c-.309 0-.867.012-1.674.035v-.338h.404c.309 0 .49-.068.547-.201.061-.135.088-.842.088-2.125v-2.588c0-1.111-.033-1.734-.1-1.867-.066-.135-.283-.201-.648-.201h-.291v-.342c.668.027 1.176.041 1.529.041.236 0 .576-.01 1.023-.027.516-.016.887-.025 1.113-.025.621 0 1.092.064 1.412.197.322.131.566.318.732.566s.252.545.252.889c0 .506-.182.953-.549 1.34-.362.387-.892.651-1.583.796zM158.928 126.781h-3.109l-.365.867c-.242.572-.363.926-.363 1.055 0 .082.023.141.068.178.045.035.158.064.342.086l.516.059v.338a23.397 23.397 0 0 0-2.523 0v-.338l.162-.004c.252-.008.412-.033.486-.078.074-.047.152-.156.234-.332.254-.518.516-1.076.781-1.674l1.479-3.354c.396-.889.666-1.537.809-1.939h.367l2.723 6.338c.184.43.305.689.367.777a.55.55 0 0 0 .209.188c.08.039.256.064.533.078v.338a27.216 27.216 0 0 0-1.336-.035c-.395 0-.92.012-1.576.035v-.338l.533-.033c.189-.012.303-.033.338-.059a.173.173 0 0 0 .08-.15c0-.064-.053-.232-.16-.506l-.595-1.497zm-2.912-.441h2.715l-1.355-3.242-1.36 3.242zM165.809 122.195a23.532 23.532 0 0 0-.059 1.701v3.068c0 1.141.029 1.77.086 1.887.059.115.264.174.613.174h.404v.338a45.911 45.911 0 0 0-1.613-.035c-.445 0-.98.012-1.605.035v-.338h.453c.236 0 .391-.031.463-.094.07-.064.115-.186.133-.369.037-.42.055-.961.055-1.625v-3.074c0-.605-.012-1.162-.037-1.668h-.549c-.887 0-1.375.02-1.465.062-.09.039-.148.201-.178.48l-.076.723h-.338l.01-.641c0-.26-.021-.631-.062-1.113 1.936.023 3.074.035 3.416.035l2.977-.035a19.36 19.36 0 0 0-.117 1.754h-.334l-.053-.705c-.023-.244-.055-.391-.092-.434-.041-.045-.127-.074-.266-.084a18.598 18.598 0 0 0-1.346-.043h-.42v.001zM168.941 129.025h.338c.336 0 .535-.08.602-.242s.1-.936.1-2.32v-1.824c0-1.436-.027-2.227-.086-2.375-.059-.146-.23-.221-.518-.221h-.436v-.336c.596.023 1.184.035 1.768.035.482 0 .924-.012 1.316-.035v.336h-.414c-.256 0-.414.033-.479.094s-.104.215-.113.463a51.437 51.437 0 0 0-.027 2.049v1.859c0 1.396.031 2.164.092 2.305.061.143.256.213.586.213h.355v.338a35.168 35.168 0 0 0-3.084 0v-.339zM172.58 125.533c0-1.182.381-2.133 1.143-2.854.76-.723 1.773-1.082 3.041-1.082 1.24 0 2.215.334 2.918 1.004.707.67 1.059 1.557 1.059 2.666 0 1.195-.41 2.195-1.227 3-.818.803-1.852 1.205-3.094 1.205-.779 0-1.451-.158-2.016-.475a3.384 3.384 0 0 1-1.334-1.383c-.326-.606-.49-1.3-.49-2.081zm1.092-.443c0 .812.141 1.518.418 2.119.279.602.65 1.051 1.117 1.352s.998.449 1.6.449c.555 0 1.041-.127 1.457-.383.418-.256.744-.635.982-1.141.24-.506.359-1.121.359-1.846 0-.762-.133-1.412-.395-1.953-.266-.539-.627-.945-1.086-1.217-.461-.273-1.004-.41-1.631-.41-.574 0-1.068.119-1.486.359a2.503 2.503 0 0 0-.979 1.059c-.237.465-.356 1.002-.356 1.612zM182.77 122.922v3.719c0 .848.018 1.438.049 1.771.025.256.066.41.125.465.061.057.232.098.516.121l.344.027v.338a18.29 18.29 0 0 0-1.061-.035c-.219 0-.721.012-1.506.035v-.338h.387c.234 0 .387-.033.457-.096.072-.066.117-.191.135-.383.041-.396.059-.932.059-1.609v-2.676c0-.502-.006-1-.016-1.49-.006-.209-.035-.352-.084-.428a.66.66 0 0 0-.213-.207.713.713 0 0 0-.393-.094h-.332v-.336c.455.023.803.035 1.043.035.258 0 .541-.012.85-.035.355.432.691.855 1.004 1.266.314.41.643.824.977 1.24l1.842 2.262a38.673 38.673 0 0 0 1.438 1.689v-3.455c0-1.447-.025-2.236-.078-2.371-.051-.135-.258-.221-.621-.256l-.404-.039v-.336c.578.023 1.025.035 1.346.035.334 0 .764-.012 1.291-.035v.336h-.412c-.334 0-.525.113-.578.336-.031.146-.047.934-.047 2.357v2.426c0 .654.029 1.436.086 2.344-.488-.076-.771-.131-.852-.166a.678.678 0 0 1-.225-.168 39.293 39.293 0 0 1-1.256-1.471l-3.871-4.778z"/></g></svg>