<?xml version="1.0" encoding="UTF-8"?>
<!-- Generated by Pixelmator Pro 2.4.2 -->
<svg width="79" height="79" viewBox="0 0 79 79" xmlns="http://www.w3.org/2000/svg" xmlns:xlink="http://www.w3.org/1999/xlink">
    <g id="Group">
        <path id="Path-copy" fill="#ffffff" stroke="none" d="M 79.711998 29.517002 L 79.711998 27.760002 L 43.912998 15.455002 L 0 40.958 L 0 41.387001 L 0 42.281998 L 0 48.769001 L 0 50.091999 L 0 50.524998 L 35.799 62.832001 L 79.713997 37.332001 L 79.713997 35.57 L 78.514999 35.117001 L 78.514999 30.212002 Z"/>
        <path id="Path" fill="#000000" stroke="none" d="M 79.711998 29.517002 L 79.711998 27.760002 L 43.912998 15.455002 L -0 40.958 L -0 41.387001 L -0 42.281998 L -0 48.769001 L -0 50.091999 L -0 50.524998 L 35.799 62.832001 L 79.713997 37.332001 L 79.713997 35.57 L 78.514999 35.117001 L 78.514999 30.212002 L 79.711998 29.517002 Z M 45.594002 17.040001 L 3.854 41.277 L 2.28 40.736 L 44.02 16.502998 L 45.594002 17.040001 Z M 1.941 42.946999 L 3.038 43.320999 L 3.038 49.813 L 1.941 49.433998 L 1.941 42.946999 Z M 4.305 50.250999 L 4.305 43.762001 L 6.807 44.620998 L 7.584 44.885998 L 35.796001 54.580997 L 72.216003 33.406998 L 72.919998 32.995998 L 77.245003 30.484001 L 77.245003 30.949001 L 77.245003 34.632 L 77.245003 35.312 L 77.245003 36.264999 L 77.245003 36.995998 L 35.799 61.071999 L 4.305 50.250999 Z"/>
    </g>
</svg>
